<?xml version="1.0" encoding="UTF-8" standalone="no"?><!DOCTYPE svg PUBLIC "-//W3C//DTD SVG 1.1//EN" "http://www.w3.org/Graphics/SVG/1.1/DTD/svg11.dtd"><svg width="100%" height="100%" viewBox="0 0 1081 1081" version="1.1" xmlns="http://www.w3.org/2000/svg" xmlns:xlink="http://www.w3.org/1999/xlink" xml:space="preserve" xmlns:serif="http://www.serif.com/" style="fill-rule:evenodd;clip-rule:evenodd;stroke-linejoin:round;stroke-miterlimit:2;"><rect id="_2" serif:id="2" x="0.358" y="0.548" width="1080" height="1080" style="fill:none;"/><g><path d="M409.611,867.943l0.021,0.024l371.656,0c58.957,-0 115.5,-22.797 157.189,-63.376c41.69,-40.579 65.11,-95.616 65.11,-153.004c-0,-0.045 -0,-0.091 -0,-0.138c0,-57.387 -23.42,-112.424 -65.11,-153.003c-41.689,-40.579 -98.232,-63.376 -157.189,-63.376c-0,-0 -49.279,-0 -49.279,-0c-45.123,-129.006 -170.747,-221.942 -318.501,-221.942c-185.652,0 -336.379,146.712 -336.379,327.42c0,179.301 148.393,325.128 332.028,327.392l0.454,0.003Zm1.069,-72.944l-0.574,-0.022c-142.705,-1.759 -258.012,-115.093 -258.012,-254.429c0,-140.436 117.136,-254.451 261.414,-254.451c122.921,-0 226.15,82.749 254.008,194.09c4.09,16.347 19.133,27.851 36.418,27.851l77.353,0c39.078,0.001 76.552,15.111 104.182,42.005c27.63,26.894 43.153,63.371 43.153,101.406l-0,0.139c-0,38.034 -15.523,74.512 -43.153,101.406c-27.63,26.894 -65.104,42.004 -104.179,42.005l-370.61,-0Z" style="fill:#fff;"/><ellipse cx="746.148" cy="413.386" rx="180.592" ry="175.782" style="fill:#ffc900;"/></g></svg>