<?xml version="1.0" encoding="UTF-8" standalone="no"?><!DOCTYPE svg PUBLIC "-//W3C//DTD SVG 1.1//EN" "http://www.w3.org/Graphics/SVG/1.1/DTD/svg11.dtd"><svg width="100%" height="100%" viewBox="0 0 1081 1081" version="1.1" xmlns="http://www.w3.org/2000/svg" xmlns:xlink="http://www.w3.org/1999/xlink" xml:space="preserve" xmlns:serif="http://www.serif.com/" style="fill-rule:evenodd;clip-rule:evenodd;stroke-linejoin:round;stroke-miterlimit:2;"><rect id="_3" serif:id="3" x="0.369" y="0.548" width="1080" height="1080" style="fill:none;"/><g><path d="M403.64,862.331l0.02,0.024l355.556,-0c56.404,-0 110.497,-22.407 150.38,-62.29c39.884,-39.884 62.29,-93.977 62.289,-150.381c0,-0.045 0,-0.09 0,-0.135c0.001,-56.404 -22.405,-110.497 -62.289,-150.381c-39.883,-39.884 -93.976,-62.29 -150.38,-62.29c-0,-0 -47.144,-0 -47.144,-0c-43.168,-126.794 -163.35,-218.138 -304.704,-218.138c-177.61,0 -321.807,144.197 -321.807,321.808c-0,176.228 141.964,319.555 317.645,321.78l0.434,0.003Zm1.023,-71.694l-0.549,-0.021c-136.523,-1.729 -246.835,-113.12 -246.835,-250.068c-0,-138.028 112.061,-250.09 250.089,-250.09c117.596,0 216.354,81.331 243.005,190.764c3.912,16.066 18.304,27.374 34.84,27.374l74.003,-0c37.385,0 73.235,14.851 99.668,41.284c26.434,26.434 41.284,62.286 41.284,99.668l-0,0.136c-0,37.383 -14.85,73.235 -41.284,99.669c-26.433,26.433 -62.283,41.283 -99.665,41.284l-354.556,0Z" style="fill:#fff;"/><path d="M712.043,540.535c-83.021,-1.051 -150.106,-68.786 -150.106,-152.066c-0,-83.935 68.144,-152.079 152.078,-152.079c71.513,0 131.563,49.466 147.77,116.014l39.357,0c24.94,0 48.858,9.908 66.493,27.543c17.635,17.635 27.542,41.553 27.542,66.493c-0,0.024 -0,0.048 -0,0.072c0,24.94 -9.907,48.858 -27.542,66.493c-17.635,17.635 -41.553,27.543 -66.493,27.543l-189.099,-0l0,-0.013Z" style="fill:#fff;"/></g></svg>