<?xml version="1.0" encoding="UTF-8" standalone="no"?><!DOCTYPE svg PUBLIC "-//W3C//DTD SVG 1.1//EN" "http://www.w3.org/Graphics/SVG/1.1/DTD/svg11.dtd"><svg width="100%" height="100%" viewBox="0 0 1081 1081" version="1.1" xmlns="http://www.w3.org/2000/svg" xmlns:xlink="http://www.w3.org/1999/xlink" xml:space="preserve" xmlns:serif="http://www.serif.com/" style="fill-rule:evenodd;clip-rule:evenodd;stroke-linejoin:round;stroke-miterlimit:2;"><rect id="_4" serif:id="4" x="0.074" y="0.548" width="1080" height="1080" style="fill:none;"/><g><path d="M530.194,685.498c-0,-0 92.723,112.18 91.681,164.566c-1.041,52.386 -44.417,94.071 -96.803,93.029c-52.386,-1.041 -94.071,-44.417 -93.03,-96.803c1.042,-52.386 98.152,-160.792 98.152,-160.792Z" style="fill:#44d3ff;"/><path d="M421.745,763.308l-3.314,0l-0.019,-0.023l-0.423,-0.003c-170.876,-2.164 -308.958,-141.572 -308.958,-312.98c0,-172.753 140.254,-313.007 313.007,-313.007c137.488,0 254.383,88.845 296.37,212.172c0,-0 45.855,-0 45.855,-0c54.862,-0 107.476,21.794 146.268,60.586c38.793,38.793 60.586,91.408 60.586,146.269c-0,0.043 -0,0.087 -0,0.131c0,54.861 -21.793,107.476 -60.586,146.269c-38.792,38.792 -91.406,60.586 -146.268,60.586l-131.273,0l-37.189,-69.756l168.465,-0c36.36,-0.001 71.23,-14.445 96.94,-40.156c25.71,-25.71 40.154,-60.582 40.154,-96.942l0,-0.133c0,-36.36 -14.444,-71.232 -40.154,-96.942c-25.71,-25.711 -60.58,-40.155 -96.943,-40.156l-71.978,0c-16.084,0 -30.083,-10.998 -33.888,-26.625c-25.922,-106.44 -121.979,-185.547 -236.359,-185.547c-134.253,0 -243.25,108.997 -243.25,243.251c-0,133.203 107.295,241.548 240.084,243.229l0.534,0.021l39.528,-0l-37.189,69.756Z" style="fill:#fff;"/></g></svg>