<?xml version="1.0" encoding="UTF-8" standalone="no"?><!DOCTYPE svg PUBLIC "-//W3C//DTD SVG 1.1//EN" "http://www.w3.org/Graphics/SVG/1.1/DTD/svg11.dtd"><svg width="100%" height="100%" viewBox="0 0 1081 1081" version="1.1" xmlns="http://www.w3.org/2000/svg" xmlns:xlink="http://www.w3.org/1999/xlink" xml:space="preserve" xmlns:serif="http://www.serif.com/" style="fill-rule:evenodd;clip-rule:evenodd;stroke-linejoin:round;stroke-miterlimit:2;"><rect id="_5" serif:id="5" x="0.432" y="0.548" width="1080" height="1080" style="fill:none;"/><g><path d="M530.549,628.238c0,-0 92.744,112.205 91.703,164.603c-1.042,52.397 -44.428,94.091 -96.826,93.05c-52.397,-1.042 -94.091,-44.428 -93.049,-96.826c1.041,-52.397 98.172,-160.827 98.172,-160.827Z" style="fill:#44d3ff;"/><path d="M677.227,799.883c0,-0 61.927,74.922 61.232,109.909c-0.696,34.987 -29.666,62.827 -64.653,62.132c-34.987,-0.696 -62.827,-29.666 -62.131,-64.653c0.696,-34.987 65.552,-107.388 65.552,-107.388Z" style="fill:#aeedff;"/><path d="M422.077,734.84l-3.315,-0l-0.019,-0.024l-0.423,-0.002c-170.913,-2.165 -309.026,-141.604 -309.026,-313.05c0,-172.791 140.285,-313.076 313.076,-313.076c137.518,0 254.439,88.865 296.436,212.219c-0,-0 45.865,-0 45.865,-0c54.873,0 107.499,21.798 146.3,60.6c38.801,38.801 60.599,91.427 60.599,146.3c-0,0.044 -0,0.088 -0,0.132c0,54.873 -21.798,107.499 -60.599,146.301c-38.801,38.801 -91.427,60.599 -146.3,60.6l-131.303,-0l-37.197,-69.772l168.503,-0c36.367,-0.001 71.245,-14.449 96.961,-40.164c25.716,-25.717 40.163,-60.596 40.163,-96.965l0,-0.132c0,-36.369 -14.447,-71.248 -40.163,-96.964c-25.716,-25.716 -60.594,-40.163 -96.965,-40.164l-71.994,-0c-16.087,-0 -30.089,-11.001 -33.895,-26.631c-25.928,-106.464 -122.006,-185.588 -236.411,-185.588c-134.283,0 -243.304,109.021 -243.304,243.304c0,133.233 107.319,241.601 240.138,243.283l0.534,0.021l39.536,-0l-37.197,69.772Z" style="fill:#fff;"/><path d="M382.296,799.883c-0,-0 61.927,74.922 61.231,109.909c-0.695,34.987 -29.665,62.827 -64.652,62.132c-34.987,-0.696 -62.827,-29.666 -62.132,-64.653c0.696,-34.987 65.553,-107.388 65.553,-107.388Z" style="fill:#fff;"/></g></svg>