<?xml version="1.0" encoding="UTF-8" standalone="no"?><!DOCTYPE svg PUBLIC "-//W3C//DTD SVG 1.1//EN" "http://www.w3.org/Graphics/SVG/1.1/DTD/svg11.dtd"><svg width="100%" height="100%" viewBox="0 0 1081 1081" version="1.1" xmlns="http://www.w3.org/2000/svg" xmlns:xlink="http://www.w3.org/1999/xlink" xml:space="preserve" xmlns:serif="http://www.serif.com/" style="fill-rule:evenodd;clip-rule:evenodd;stroke-linejoin:round;stroke-miterlimit:2;"><rect id="_6" serif:id="6" x="0.443" y="0.548" width="1080" height="1080" style="fill:none;"/><g><path d="M530.652,596.031c0,-0 91.882,111.162 90.849,163.072c-1.032,51.91 -44.014,93.216 -95.924,92.184c-51.91,-1.032 -93.216,-44.015 -92.184,-95.925c1.032,-51.91 97.259,-159.331 97.259,-159.331Z" style="fill:#44d3ff;"/><path d="M383.778,766.079c-0,0 61.351,74.226 60.662,108.887c-0.69,34.662 -29.39,62.243 -64.051,61.554c-34.662,-0.689 -62.243,-29.39 -61.554,-64.051c0.689,-34.662 64.943,-106.39 64.943,-106.39Z" style="fill:#fff;"/><path d="M675.966,766.079c-0,0 61.351,74.226 60.662,108.887c-0.689,34.662 -29.39,62.243 -64.051,61.554c-34.662,-0.689 -62.243,-29.39 -61.554,-64.051c0.689,-34.662 64.943,-106.39 64.943,-106.39Z" style="fill:#aeedff;"/><path d="M423.189,701.641l-3.284,-0l-0.019,-0.023l-0.419,-0.003c-169.324,-2.144 -306.151,-140.286 -306.151,-310.137c-0,-171.184 138.979,-310.164 310.163,-310.164c136.239,0 252.072,88.038 293.679,210.245c-0,-0 45.438,-0 45.438,-0c54.363,-0 106.499,21.596 144.939,60.036c38.44,38.441 60.036,90.577 60.035,144.939c0,0.044 0,0.088 0,0.131c0.001,54.363 -21.595,106.499 -60.035,144.94c-38.44,38.44 -90.576,60.036 -144.939,60.036l-130.081,-0l-36.851,-69.123l166.935,0c36.029,-0.001 70.582,-14.314 96.059,-39.79c25.477,-25.478 39.79,-60.032 39.789,-96.063l0,-0.131c0.001,-36.03 -14.312,-70.585 -39.789,-96.062c-25.477,-25.477 -60.03,-39.79 -96.063,-39.79l-71.324,-0c-15.938,-0 -29.809,-10.899 -33.58,-26.384c-25.687,-105.473 -120.871,-183.861 -234.212,-183.861c-133.034,0 -241.04,108.007 -241.04,241.041c-0,131.993 106.32,239.354 237.903,241.02l0.529,0.02l39.169,0l-36.851,69.123Z" style="fill:#fff;"/><path d="M529.365,873.65c-0,0 45.266,54.765 44.758,80.339c-0.509,25.575 -21.684,45.925 -47.259,45.416c-25.574,-0.508 -45.924,-21.684 -45.415,-47.258c0.508,-25.574 47.916,-78.497 47.916,-78.497Z" style="fill:#44d3ff;"/></g></svg>