<?xml version="1.0" encoding="UTF-8" standalone="no"?><!DOCTYPE svg PUBLIC "-//W3C//DTD SVG 1.1//EN" "http://www.w3.org/Graphics/SVG/1.1/DTD/svg11.dtd"><svg width="100%" height="100%" viewBox="0 0 1081 1081" version="1.1" xmlns="http://www.w3.org/2000/svg" xmlns:xlink="http://www.w3.org/1999/xlink" xml:space="preserve" xmlns:serif="http://www.serif.com/" style="fill-rule:evenodd;clip-rule:evenodd;stroke-linejoin:round;stroke-miterlimit:2;"><rect id="_7" serif:id="7" x="0.495" y="0.548" width="1080" height="1080" style="fill:none;"/><g><path d="M530.037,633.312c0,0 98.144,118.739 97.041,174.187c-1.102,55.448 -47.014,99.569 -102.462,98.467c-55.448,-1.103 -99.57,-47.014 -98.467,-102.462c1.102,-55.448 103.888,-170.192 103.888,-170.192Z" style="fill:#44d3ff;"/><path d="M373.152,814.951c-0,-0 65.533,79.284 64.797,116.308c-0.737,37.024 -31.393,66.485 -68.417,65.749c-37.024,-0.736 -66.485,-31.393 -65.749,-68.417c0.736,-37.024 69.369,-113.64 69.369,-113.64Z" style="fill:#fff;"/><path d="M685.254,814.951c0,-0 65.533,79.284 64.797,116.308c-0.736,37.024 -31.392,66.485 -68.416,65.749c-37.024,-0.736 -66.485,-31.393 -65.749,-68.417c0.736,-37.024 69.368,-113.64 69.368,-113.64Z" style="fill:#aeedff;"/><path d="M415.25,746.121l-3.509,-0l-0.02,-0.025l-0.447,-0.003c-180.864,-2.29 -327.018,-149.847 -327.018,-331.275c0,-182.852 148.452,-331.303 331.303,-331.303c145.525,-0 269.253,94.038 313.695,224.574c-0,-0 48.535,-0 48.535,-0c58.068,-0 113.758,23.067 154.818,64.128c41.06,41.06 64.127,96.75 64.127,154.818c-0,0.046 -0,0.093 -0,0.139c0,58.068 -23.067,113.758 -64.127,154.818c-41.06,41.061 -96.75,64.128 -154.818,64.129l-138.947,-0l-39.362,-73.834l178.312,-0c38.485,-0.001 75.393,-15.29 102.606,-42.503c27.214,-27.214 42.502,-64.123 42.502,-102.609l-0,-0.14c0,-38.486 -15.288,-75.396 -42.502,-102.61c-27.213,-27.213 -64.121,-42.501 -102.609,-42.502l-76.186,-0c-17.024,-0 -31.84,-11.641 -35.869,-28.182c-27.437,-112.662 -129.108,-196.392 -250.175,-196.392c-142.101,-0 -257.469,115.368 -257.469,257.469c0,140.989 113.567,255.667 254.119,257.447l0.565,0.022l41.838,-0l-39.362,73.834Z" style="fill:#fff;"/><path d="M327.916,443.772l198.692,0l-174.596,161.778l102.203,0l-342.575,300.436l137.042,-193.487l-67.087,0l146.321,-268.727Z" style="fill:#ffb600;"/></g></svg>