<?xml version="1.0" encoding="UTF-8" standalone="no"?><!DOCTYPE svg PUBLIC "-//W3C//DTD SVG 1.1//EN" "http://www.w3.org/Graphics/SVG/1.1/DTD/svg11.dtd"><svg width="100%" height="100%" viewBox="0 0 1081 1080" version="1.1" xmlns="http://www.w3.org/2000/svg" xmlns:xlink="http://www.w3.org/1999/xlink" xml:space="preserve" xmlns:serif="http://www.serif.com/" style="fill-rule:evenodd;clip-rule:evenodd;stroke-linejoin:round;stroke-miterlimit:2;"><rect id="BERAWAN" x="0.369" y="0" width="1080" height="1080" style="fill:none;"/><g><path d="M540.369,20c222.738,-0 403.573,180.835 403.573,403.574c0,366.206 -403.573,637.753 -403.573,637.753c-0,0 -403.574,-271.547 -403.574,-637.753c0,-222.739 180.836,-403.574 403.574,-403.574Z" style="fill:#333;"/><circle cx="540.369" cy="423.574" r="366.207" style="fill:#4a4a4a;"/></g><g><path d="M445.858,605.202l0.012,0.015l221.929,-0c35.206,-0.001 68.97,-13.986 93.864,-38.88c24.894,-24.895 38.879,-58.659 38.879,-93.864c0,-0.028 0,-0.057 0,-0.085c0,-35.205 -13.985,-68.969 -38.879,-93.864c-24.894,-24.894 -58.658,-38.879 -93.864,-38.879c0,-0 -29.426,-0 -29.426,-0c-26.944,-79.142 -101.959,-136.156 -190.188,-136.156c-110.86,-0 -200.864,90.004 -200.864,200.864c0,109.997 88.611,199.458 198.266,200.847l0.271,0.002Zm0.638,-44.75l-0.342,-0.013c-85.214,-1.079 -154.068,-70.607 -154.068,-156.086c-0,-86.154 69.945,-156.1 156.099,-156.1c73.401,0 135.042,50.765 151.677,119.07c2.442,10.028 11.426,17.086 21.747,17.086l46.19,-0c23.335,0.001 45.712,9.27 62.211,25.769c16.499,16.499 25.768,38.877 25.768,62.21l-0,0.085c-0,23.333 -9.269,45.711 -25.768,62.211c-16.499,16.498 -38.876,25.768 -62.209,25.768l-221.305,0Z" style="fill:#fff;"/><path d="M638.355,404.345c-51.819,-0.657 -93.692,-42.935 -93.692,-94.916c-0,-52.39 42.534,-94.924 94.923,-94.924c44.637,0 82.118,30.876 92.234,72.413l24.566,0c15.567,0 30.496,6.184 41.503,17.192c11.008,11.007 17.191,25.936 17.191,41.503c0,0.015 0,0.03 0,0.045c0,15.567 -6.183,30.496 -17.191,41.503c-11.007,11.008 -25.936,17.192 -41.503,17.192l-118.031,-0l0,-0.008Z" style="fill:#fff;"/></g></svg>