<?xml version="1.0" encoding="UTF-8" standalone="no"?><!DOCTYPE svg PUBLIC "-//W3C//DTD SVG 1.1//EN" "http://www.w3.org/Graphics/SVG/1.1/DTD/svg11.dtd"><svg width="100%" height="100%" viewBox="0 0 1081 1080" version="1.1" xmlns="http://www.w3.org/2000/svg" xmlns:xlink="http://www.w3.org/1999/xlink" xml:space="preserve" xmlns:serif="http://www.serif.com/" style="fill-rule:evenodd;clip-rule:evenodd;stroke-linejoin:round;stroke-miterlimit:2;"><rect id="CERAHBERAWAN" x="0.358" y="0" width="1080" height="1080" style="fill:none;"/><g><path d="M540.358,20c222.738,-0 403.574,180.835 403.574,403.574c-0,366.206 -403.574,637.753 -403.574,637.753c0,0 -403.574,-271.547 -403.574,-637.753c0,-222.739 180.836,-403.574 403.574,-403.574Z" style="fill:#333;"/><circle cx="540.358" cy="423.574" r="366.207" style="fill:#4a4a4a;"/></g><g><path d="M452.794,605.529l0.012,0.014l222.845,0c35.351,0 69.254,-13.669 94.25,-38c24.997,-24.331 39.04,-57.331 39.04,-91.741c-0,-0.027 -0,-0.055 -0,-0.082c-0,-34.409 -14.043,-67.409 -39.04,-91.741c-24.996,-24.331 -58.899,-38 -94.25,-38c-0,0 -29.548,0 -29.548,0c-27.055,-77.351 -102.379,-133.076 -190.972,-133.076c-111.317,0 -201.692,87.968 -201.692,196.32c-0,107.509 88.975,194.947 199.083,196.304l0.272,0.002Zm0.641,-43.737l-0.344,-0.013c-85.565,-1.055 -154.703,-69.01 -154.703,-152.556c-0,-84.204 70.234,-152.568 156.743,-152.568c73.703,0 135.599,49.616 152.302,116.376c2.453,9.802 11.473,16.7 21.837,16.7l46.38,-0c23.431,0 45.901,9.06 62.467,25.185c16.568,16.127 25.875,37.998 25.875,60.804l-0,0.083c-0,22.805 -9.307,44.677 -25.875,60.803c-16.566,16.126 -39.036,25.185 -62.465,25.186l-222.217,-0Z" style="fill:#fff;"/><ellipse cx="654.581" cy="332.977" rx="108.283" ry="105.399" style="fill:#ffc900;"/></g></svg>