<?xml version="1.0" encoding="UTF-8" standalone="no"?><!DOCTYPE svg PUBLIC "-//W3C//DTD SVG 1.1//EN" "http://www.w3.org/Graphics/SVG/1.1/DTD/svg11.dtd"><svg width="100%" height="100%" viewBox="0 0 1081 1080" version="1.1" xmlns="http://www.w3.org/2000/svg" xmlns:xlink="http://www.w3.org/1999/xlink" xml:space="preserve" xmlns:serif="http://www.serif.com/" style="fill-rule:evenodd;clip-rule:evenodd;stroke-linejoin:round;stroke-miterlimit:2;"><rect id="HUJANLEBAT" x="0.443" y="0" width="1080" height="1080" style="fill:none;"/><g><path d="M540.443,20c222.738,-0 403.574,180.835 403.574,403.574c-0,366.206 -403.574,637.753 -403.574,637.753c0,0 -403.573,-271.547 -403.573,-637.753c-0,-222.739 180.835,-403.574 403.573,-403.574Z" style="fill:#333;"/><circle cx="540.443" cy="423.574" r="366.207" style="fill:#4a4a4a;"/></g><g><path d="M534.588,456.29c0,-0 54.945,66.474 54.327,97.516c-0.617,31.042 -26.32,55.743 -57.362,55.126c-31.042,-0.618 -55.743,-26.321 -55.125,-57.363c0.617,-31.042 58.16,-95.279 58.16,-95.279Z" style="fill:#44d3ff;"/><path d="M446.758,557.978c0,-0 36.688,44.386 36.276,65.114c-0.413,20.727 -17.575,37.22 -38.302,36.808c-20.728,-0.412 -37.221,-17.574 -36.809,-38.302c0.412,-20.727 38.835,-63.62 38.835,-63.62Z" style="fill:#fff;"/><path d="M621.485,557.978c-0,-0 36.687,44.386 36.275,65.114c-0.412,20.727 -17.574,37.22 -38.302,36.808c-20.727,-0.412 -37.221,-17.574 -36.809,-38.302c0.413,-20.727 38.836,-63.62 38.836,-63.62Z" style="fill:#aeedff;"/><path d="M470.326,519.444l-1.964,0l-0.011,-0.014l-0.251,-0.001c-101.254,-1.282 -183.076,-83.89 -183.076,-185.461c-0,-102.366 83.108,-185.475 185.475,-185.475c81.47,-0 150.738,52.646 175.618,125.725c0,-0 27.172,-0 27.172,-0c32.509,-0 63.686,12.914 86.673,35.901c22.987,22.987 35.901,54.164 35.901,86.673c-0,0.026 -0,0.052 -0,0.078c-0,32.508 -12.914,63.686 -35.901,86.673c-22.987,22.987 -54.164,35.901 -86.673,35.901l-77.788,0l-22.036,-41.335l99.826,0c21.545,-0 42.208,-8.559 57.442,-23.794c15.236,-15.236 23.795,-35.899 23.794,-57.445l0,-0.078c0.001,-21.546 -8.558,-42.21 -23.794,-57.445c-15.234,-15.235 -35.897,-23.794 -57.444,-23.794l-42.652,-0c-9.53,-0 -17.825,-6.518 -20.08,-15.777c-15.361,-63.073 -72.28,-109.948 -140.058,-109.948c-79.553,-0 -144.14,64.587 -144.14,144.14c-0,78.932 63.579,143.133 142.265,144.129l0.316,0.012l23.422,0l-22.036,41.335Z" style="fill:#fff;"/><path d="M533.818,622.305c0,-0 27.069,32.749 26.765,48.042c-0.304,15.293 -12.967,27.462 -28.26,27.158c-15.293,-0.304 -27.462,-12.967 -27.158,-28.26c0.304,-15.293 28.653,-46.94 28.653,-46.94Z" style="fill:#44d3ff;"/></g></svg>