<?xml version="1.0" encoding="UTF-8" standalone="no"?><!DOCTYPE svg PUBLIC "-//W3C//DTD SVG 1.1//EN" "http://www.w3.org/Graphics/SVG/1.1/DTD/svg11.dtd"><svg width="100%" height="100%" viewBox="0 0 1081 1080" version="1.1" xmlns="http://www.w3.org/2000/svg" xmlns:xlink="http://www.w3.org/1999/xlink" xml:space="preserve" xmlns:serif="http://www.serif.com/" style="fill-rule:evenodd;clip-rule:evenodd;stroke-linejoin:round;stroke-miterlimit:2;"><rect id="HUJANRINGAN" x="0.074" y="0" width="1080" height="1080" style="fill:none;"/><g><g><path d="M540.074,20c222.738,-0 403.574,180.835 403.574,403.574c-0,366.206 -403.574,637.753 -403.574,637.753c0,0 -403.573,-271.547 -403.573,-637.753c-0,-222.739 180.835,-403.574 403.573,-403.574Z" style="fill:#333;"/><circle cx="540.074" cy="423.574" r="366.207" style="fill:#4a4a4a;"/></g></g><g><path d="M533.831,504.327c0,0 58.587,70.881 57.929,103.981c-0.658,33.1 -28.065,59.439 -61.165,58.78c-33.1,-0.658 -59.438,-28.065 -58.78,-61.165c0.658,-33.099 62.016,-101.596 62.016,-101.596Z" style="fill:#44d3ff;"/><path d="M465.308,553.492l-2.094,-0l-0.012,-0.015l-0.267,-0.002c-107.967,-1.367 -195.214,-89.452 -195.214,-197.755c0,-109.154 88.619,-197.772 197.772,-197.772c86.872,-0 160.731,56.136 187.261,134.06c0,-0 28.973,-0 28.973,-0c34.664,-0 67.908,13.77 92.419,38.281c24.511,24.511 38.281,57.755 38.281,92.419c-0,0.028 -0,0.056 -0,0.083c0,34.664 -13.77,67.908 -38.281,92.419c-24.511,24.511 -57.755,38.282 -92.419,38.282l-82.945,-0l-23.497,-44.076l106.444,0c22.974,-0 45.006,-9.127 61.251,-25.372c16.245,-16.245 25.372,-38.278 25.371,-61.253l0,-0.083c0.001,-22.974 -9.126,-45.008 -25.371,-61.253c-16.245,-16.245 -38.277,-25.371 -61.253,-25.372l-45.479,0c-10.163,0 -19.008,-6.949 -21.412,-16.823c-16.379,-67.254 -77.072,-117.237 -149.343,-117.237c-84.827,-0 -153.696,68.869 -153.696,153.697c-0,84.164 67.794,152.621 151.696,153.684l0.338,0.012l24.975,0l-23.498,44.076Z" style="fill:#fff;"/></g></svg>