<?xml version="1.0" encoding="UTF-8" standalone="no"?><!DOCTYPE svg PUBLIC "-//W3C//DTD SVG 1.1//EN" "http://www.w3.org/Graphics/SVG/1.1/DTD/svg11.dtd"><svg width="100%" height="100%" viewBox="0 0 1081 1080" version="1.1" xmlns="http://www.w3.org/2000/svg" xmlns:xlink="http://www.w3.org/1999/xlink" xml:space="preserve" xmlns:serif="http://www.serif.com/" style="fill-rule:evenodd;clip-rule:evenodd;stroke-linejoin:round;stroke-miterlimit:2;"><rect id="HUJANSEDANG" x="0.432" y="0" width="1080" height="1080" style="fill:none;"/><g><path d="M540.432,20c222.738,-0 403.574,180.835 403.574,403.574c-0,366.206 -403.574,637.753 -403.574,637.753c0,0 -403.573,-271.547 -403.573,-637.753c-0,-222.739 180.835,-403.574 403.573,-403.574Z" style="fill:#333;"/><circle cx="540.432" cy="423.574" r="366.207" style="fill:#4a4a4a;"/></g><g><path d="M534.278,467.221c-0,0 57.757,69.877 57.108,102.508c-0.649,32.631 -27.668,58.597 -60.299,57.948c-32.631,-0.649 -58.596,-27.668 -57.947,-60.299c0.648,-32.631 61.138,-100.157 61.138,-100.157Z" style="fill:#44d3ff;"/><path d="M625.622,574.115c0,-0 38.566,46.658 38.133,68.447c-0.433,21.788 -18.475,39.126 -40.263,38.693c-21.788,-0.434 -39.126,-18.475 -38.693,-40.263c0.433,-21.789 40.823,-66.877 40.823,-66.877Z" style="fill:#aeedff;"/><path d="M466.726,533.608l-2.065,0l-0.012,-0.014l-0.263,-0.002c-106.438,-1.348 -192.449,-88.184 -192.449,-194.954c0,-107.607 87.364,-194.97 194.971,-194.97c85.641,-0 158.454,55.341 184.608,132.16c-0,0 28.563,0 28.563,0c34.172,0.001 66.946,13.576 91.109,37.74c24.164,24.164 37.739,56.937 37.739,91.109c-0,0.028 -0,0.055 -0,0.082c-0,34.173 -13.575,66.946 -37.739,91.11c-24.163,24.164 -56.937,37.739 -91.109,37.739l-81.77,0l-23.165,-43.451l104.936,0c22.649,-0 44.369,-8.997 60.384,-25.012c16.015,-16.015 25.012,-37.737 25.012,-60.385l-0,-0.083c-0,-22.649 -8.997,-44.37 -25.012,-60.385c-16.015,-16.015 -37.735,-25.012 -60.386,-25.012l-44.835,-0c-10.018,-0 -18.738,-6.851 -21.108,-16.585c-16.147,-66.301 -75.98,-115.576 -147.227,-115.576c-83.626,-0 -151.52,67.893 -151.52,151.519c0,82.972 66.834,150.459 149.548,151.507l0.333,0.012l24.621,0l-23.164,43.451Z" style="fill:#fff;"/><path d="M441.951,574.115c0,-0 38.566,46.658 38.133,68.447c-0.433,21.788 -18.475,39.126 -40.263,38.693c-21.788,-0.434 -39.126,-18.475 -38.693,-40.263c0.433,-21.789 40.823,-66.877 40.823,-66.877Z" style="fill:#fff;"/></g></svg>