<?xml version="1.0" encoding="UTF-8" standalone="no"?><!DOCTYPE svg PUBLIC "-//W3C//DTD SVG 1.1//EN" "http://www.w3.org/Graphics/SVG/1.1/DTD/svg11.dtd"><svg width="100%" height="100%" viewBox="0 0 1081 1080" version="1.1" xmlns="http://www.w3.org/2000/svg" xmlns:xlink="http://www.w3.org/1999/xlink" xml:space="preserve" xmlns:serif="http://www.serif.com/" style="fill-rule:evenodd;clip-rule:evenodd;stroke-linejoin:round;stroke-miterlimit:2;"><rect id="HUJANPETIR" x="0.495" y="0" width="1080" height="1080" style="fill:none;"/><g><path d="M540.495,20c222.738,-0 403.574,180.835 403.574,403.574c-0,366.206 -403.574,637.753 -403.574,637.753c0,0 -403.573,-271.547 -403.573,-637.753c-0,-222.739 180.835,-403.574 403.573,-403.574Z" style="fill:#333;"/><circle cx="540.495" cy="423.574" r="366.207" style="fill:#4a4a4a;"/></g><g><path d="M534.468,477.14c0,0 56.56,68.429 55.925,100.384c-0.635,31.954 -27.094,57.381 -59.049,56.746c-31.955,-0.635 -57.382,-27.094 -56.746,-59.049c0.635,-31.954 59.87,-98.081 59.87,-98.081Z" style="fill:#44d3ff;"/><path d="M444.056,581.818c-0,0 37.766,45.692 37.342,67.029c-0.424,21.336 -18.092,38.315 -39.429,37.89c-21.336,-0.424 -38.315,-18.091 -37.89,-39.428c0.424,-21.337 39.977,-65.491 39.977,-65.491Z" style="fill:#fff;"/><path d="M623.92,581.818c-0,0 37.766,45.692 37.342,67.029c-0.424,21.336 -18.092,38.315 -39.428,37.89c-21.337,-0.424 -38.316,-18.091 -37.891,-39.428c0.424,-21.337 39.977,-65.491 39.977,-65.491Z" style="fill:#aeedff;"/><path d="M468.316,542.152l-2.021,-0l-0.012,-0.015l-0.258,-0.001c-104.232,-1.32 -188.459,-86.357 -188.459,-190.914c-0,-105.377 85.552,-190.929 190.929,-190.929c83.866,-0 155.17,54.194 180.782,129.422c-0,-0 27.97,-0 27.97,-0c33.465,-0 65.559,13.293 89.222,36.956c23.662,23.664 36.956,55.757 36.956,89.222c-0,0.027 -0,0.053 -0,0.08c0,33.465 -13.294,65.559 -36.956,89.222c-23.663,23.663 -55.757,36.956 -89.222,36.957l-80.075,-0l-22.684,-42.551l102.761,0c22.179,-0 43.449,-8.811 59.132,-24.494c15.683,-15.683 24.494,-36.954 24.493,-59.134l0,-0.08c0.001,-22.18 -8.81,-43.451 -24.493,-59.134c-15.683,-15.683 -36.953,-24.494 -59.134,-24.494l-43.906,-0c-9.811,-0 -18.349,-6.709 -20.671,-16.241c-15.812,-64.927 -74.405,-113.181 -144.175,-113.181c-81.893,0 -148.379,66.487 -148.379,148.379c-0,81.252 65.448,147.341 146.448,148.367l0.326,0.012l24.111,0l-22.685,42.551Z" style="fill:#fff;"/><path d="M417.986,367.909l114.506,-0l-100.619,93.232l58.899,0l-197.426,173.141l78.978,-111.506l-38.663,-0l84.325,-154.867Z" style="fill:#ffb600;"/></g></svg>