<?xml version="1.0" encoding="UTF-8" standalone="no"?><!DOCTYPE svg PUBLIC "-//W3C//DTD SVG 1.1//EN" "http://www.w3.org/Graphics/SVG/1.1/DTD/svg11.dtd"><svg width="100%" height="100%" viewBox="0 0 1843 2407" version="1.1" xmlns="http://www.w3.org/2000/svg" xmlns:xlink="http://www.w3.org/1999/xlink" xml:space="preserve" xmlns:serif="http://www.serif.com/" style="fill-rule:evenodd;clip-rule:evenodd;stroke-linejoin:round;stroke-miterlimit:2;"><rect id="Artboard2" x="-0" y="0" width="1842.55" height="2406.35" style="fill:none;"/><clipPath id="_clip1"><rect x="-0" y="0" width="1842.55" height="2406.35"/></clipPath><g clip-path="url(#_clip1)"><path d="M929.015,0c0,0 915.404,887.004 915.404,1427.34c0,540.333 -410.179,979.015 -915.404,979.015c-505.225,-0 -915.403,-438.682 -915.403,-979.015c-0,-540.332 915.403,-1427.34 915.403,-1427.34Zm0,302.423c0,0 723.826,689.795 723.826,1117.05c0,427.251 -324.335,774.124 -723.826,774.124c-399.49,-0 -723.825,-346.873 -723.825,-774.124c-0,-427.25 723.825,-1117.05 723.825,-1117.05Z" style="fill:#fff;"/><path d="M1360.29,1393.05c-10.712,157.592 -54.711,279.851 -139.457,363.409c-84.779,83.59 -208.244,126.332 -368.622,134.324c-51.235,2.553 -90.758,46.222 -88.205,97.458c2.553,51.235 46.222,90.758 97.457,88.205c214.439,-10.686 376.528,-75.848 489.885,-187.616c113.391,-111.8 180.075,-272.314 194.407,-483.174c3.479,-51.181 -35.249,-95.557 -86.429,-99.036c-51.181,-3.479 -95.558,35.249 -99.036,86.43Z" style="fill:#fff;"/></g></svg>