<?xml version="1.0" encoding="UTF-8" standalone="no"?><!DOCTYPE svg PUBLIC "-//W3C//DTD SVG 1.1//EN" "http://www.w3.org/Graphics/SVG/1.1/DTD/svg11.dtd"><svg width="100%" height="100%" viewBox="0 0 707 2407" version="1.1" xmlns="http://www.w3.org/2000/svg" xmlns:xlink="http://www.w3.org/1999/xlink" xml:space="preserve" xmlns:serif="http://www.serif.com/" style="fill-rule:evenodd;clip-rule:evenodd;stroke-linejoin:round;stroke-miterlimit:2;"><rect id="Artboard1" x="0" y="0" width="706.149" height="2406.35" style="fill:none;"/><path d="M556.275,1313.39l-0,878.419c-0,118.487 -90.975,214.54 -203.198,214.54l-0.005,-0c-112.223,-0 -203.197,-96.053 -203.197,-214.54l-0,-1530.9c-86.512,-66.435 -142.79,-174.139 -142.79,-295.613c0,-201.615 155.033,-365.301 345.99,-365.301c190.956,0 345.989,163.686 345.989,365.301c-0,121.474 -56.278,229.178 -142.789,295.613l-0,125.505l0.615,-0l-0,66.809l-0.615,0l-0,93.506l0.615,-0l-0,66.809l-0.615,0l-0,84.6l0.615,-0l-0,66.809l-0.615,0l-0,81.63l0.615,0l-0,66.81l-0.615,0Zm-134.552,-526.973l0,-244.738c61.369,-28.074 104.346,-92.621 104.346,-167.682c0,-100.808 -77.516,-182.651 -172.994,-182.651c-95.479,0 -172.995,81.843 -172.995,182.651c-0,75.061 42.977,139.608 104.346,167.682l-0,1585.1c-0,40.028 30.734,72.478 68.646,72.478c0.002,-0 0.003,-0 0.005,-0c37.912,-0 68.646,-32.45 68.646,-72.478l0,-813.384l-70.756,0c-17.471,0 -31.635,-14.954 -31.635,-33.4l0,-0.009c0,-18.447 14.164,-33.401 31.635,-33.401l70.756,0l0,-81.63l-70.756,0c-17.471,0 -31.635,-14.954 -31.635,-33.4l0,-0.009c0,-18.447 14.164,-33.4 31.635,-33.4l70.756,-0l0,-84.6l-70.756,0c-17.471,0 -31.635,-14.953 -31.635,-33.4l0,-0.009c0,-18.446 14.164,-33.4 31.635,-33.4l70.756,-0l0,-93.506l-70.756,0c-17.471,0 -31.635,-14.954 -31.635,-33.4l0,-0.009c0,-18.447 14.164,-33.4 31.635,-33.4l70.756,-0Z" style="fill:#fff;"/></svg>