<?xml version="1.0" encoding="UTF-8" standalone="no"?><!DOCTYPE svg PUBLIC "-//W3C//DTD SVG 1.1//EN" "http://www.w3.org/Graphics/SVG/1.1/DTD/svg11.dtd"><svg width="100%" height="100%" viewBox="0 0 11 11" version="1.1" xmlns="http://www.w3.org/2000/svg" xmlns:xlink="http://www.w3.org/1999/xlink" xml:space="preserve" xmlns:serif="http://www.serif.com/" style="fill-rule:evenodd;clip-rule:evenodd;stroke-linejoin:round;stroke-miterlimit:2;"><g><path d="M5,1c2.76,-0 5,2.24 5,5c0,2.76 -2.24,5 -5,5c-2.76,0 -5,-2.24 -5,-5c0,-2.76 2.24,-5 5,-5Zm0,1.465c1.951,0 3.535,1.584 3.535,3.535c-0,1.951 -1.584,3.535 -3.535,3.535c-1.951,-0 -3.535,-1.584 -3.535,-3.535c0,-1.951 1.584,-3.535 3.535,-3.535Z" style="fill:#b5f200;"/><path d="M2.307,5.857l1.514,1.658c0.11,0.134 0.267,0.211 0.432,0.211c0.165,0.001 0.323,-0.075 0.434,-0.209l5.431,-7.301c0.044,-0.053 0.04,-0.135 -0.009,-0.183c-0.049,-0.048 -0.124,-0.043 -0.168,0.01l-5.637,6.107c-0,-0 -0.958,-1.302 -0.958,-1.302c-0.256,-0.312 -0.697,-0.339 -0.983,-0.06c-0.287,0.278 -0.312,0.757 -0.056,1.069Z" style="fill:#b5f200;"/></g></svg>