<?xml version="1.0" encoding="UTF-8" standalone="no"?><!DOCTYPE svg PUBLIC "-//W3C//DTD SVG 1.1//EN" "http://www.w3.org/Graphics/SVG/1.1/DTD/svg11.dtd"><svg width="100%" height="100%" viewBox="0 0 3750 375" version="1.1" xmlns="http://www.w3.org/2000/svg" xmlns:xlink="http://www.w3.org/1999/xlink" xml:space="preserve" xmlns:serif="http://www.serif.com/" style="fill-rule:evenodd;clip-rule:evenodd;stroke-linejoin:round;stroke-miterlimit:2;"><g><path d="M3708.51,97.917c0,-21.455 -8.523,-42.032 -23.695,-57.204c-15.171,-15.171 -35.748,-23.695 -57.204,-23.695c-486.52,0 -3018.71,0 -3505.23,0c-21.456,0 -42.033,8.524 -57.204,23.695c-15.172,15.172 -23.695,35.749 -23.695,57.204c-0,54.115 -0,125.051 -0,179.166c-0,21.455 8.523,42.032 23.695,57.204c15.171,15.171 35.748,23.695 57.204,23.695c486.52,-0 3018.71,-0 3505.23,-0c21.456,-0 42.033,-8.524 57.204,-23.695c15.172,-15.172 23.695,-35.749 23.695,-57.204c0,-54.115 0,-125.051 0,-179.166Z" style="fill:#0f0f0f;"/><path d="M2849.01,214.2c0,0 29.03,35.122 28.704,51.523c-0.326,16.402 -13.906,29.453 -30.308,29.126c-16.401,-0.326 -29.452,-13.906 -29.126,-30.307c0.326,-16.402 30.73,-50.342 30.73,-50.342Z" style="fill:#44d3ff;"/><path d="M2848.6,301.915c0,0 14.302,17.304 14.142,25.384c-0.161,8.08 -6.852,14.51 -14.932,14.349c-8.08,-0.16 -14.51,-6.851 -14.349,-14.931c0.161,-8.081 15.139,-24.802 15.139,-24.802Z" style="fill:#44d3ff;"/><path d="M2802.6,267.928c0,-0 19.384,23.452 19.167,34.403c-0.218,10.952 -9.286,19.666 -20.238,19.448c-10.951,-0.218 -19.665,-9.286 -19.448,-20.237c0.218,-10.952 20.519,-33.614 20.519,-33.614Z" style="fill:#fff;"/><path d="M2894.92,267.928c0,-0 19.385,23.452 19.167,34.403c-0.218,10.952 -9.286,19.666 -20.237,19.448c-10.952,-0.218 -19.666,-9.286 -19.448,-20.237c0.217,-10.952 20.518,-33.614 20.518,-33.614Z" style="fill:#aeedff;"/><path d="M2815.05,247.568l-1.037,0l-0.006,-0.007l-0.133,-0.001c-53.498,-0.678 -96.73,-44.324 -96.73,-97.99c0,-54.086 43.912,-97.997 97.998,-97.997c43.046,-0 79.644,27.816 92.789,66.428c0,-0 14.357,-0 14.357,-0c17.176,-0 33.649,6.823 45.794,18.968c12.145,12.146 18.969,28.618 18.969,45.795c-0,0.013 -0,0.027 -0,0.041c-0,17.176 -6.824,33.649 -18.969,45.794c-12.145,12.146 -28.618,18.969 -45.794,18.969l-41.1,0l-11.643,-21.84l52.744,0c11.383,0 22.301,-4.522 30.35,-12.572c8.05,-8.049 12.572,-18.967 12.572,-30.351l-0,-0.041c-0,-11.384 -4.522,-22.302 -12.572,-30.352c-8.049,-8.049 -18.967,-12.572 -30.351,-12.572l-22.536,0c-5.035,0 -9.418,-3.443 -10.609,-8.336c-8.116,-33.325 -38.19,-58.092 -74.001,-58.092c-42.033,0 -76.158,34.126 -76.158,76.158c0,41.704 33.593,75.625 75.167,76.152l0.167,0.006l12.376,0l-11.644,21.84Z" style="fill:#fff;"/><path d="M3393.25,214.2c-0,0 29.03,35.122 28.704,51.523c-0.326,16.402 -13.906,29.453 -30.308,29.126c-16.401,-0.326 -29.452,-13.906 -29.126,-30.307c0.326,-16.402 30.73,-50.342 30.73,-50.342Z" style="fill:#44d3ff;"/><path d="M3346.85,267.928c0,-0 19.384,23.452 19.167,34.403c-0.218,10.952 -9.286,19.666 -20.238,19.448c-10.951,-0.218 -19.665,-9.286 -19.448,-20.237c0.218,-10.952 20.519,-33.614 20.519,-33.614Z" style="fill:#fff;"/><path d="M3439.16,267.928c0,-0 19.385,23.452 19.167,34.403c-0.218,10.952 -9.286,19.666 -20.237,19.448c-10.952,-0.218 -19.666,-9.286 -19.448,-20.237c0.217,-10.952 20.518,-33.614 20.518,-33.614Z" style="fill:#aeedff;"/><path d="M3359.3,247.568l-1.037,0l-0.006,-0.007l-0.133,-0.001c-53.498,-0.678 -96.73,-44.324 -96.73,-97.99c0,-54.086 43.912,-97.997 97.998,-97.997c43.046,-0 79.644,27.816 92.789,66.428c0,-0 14.357,-0 14.357,-0c17.176,-0 33.649,6.823 45.794,18.968c12.145,12.146 18.969,28.618 18.968,45.795c0,0.013 0,0.027 0,0.041c0.001,17.176 -6.823,33.649 -18.968,45.794c-12.145,12.146 -28.618,18.969 -45.794,18.969l-41.1,0l-11.643,-21.84l52.744,0c11.383,0 22.301,-4.522 30.35,-12.572c8.05,-8.049 12.572,-18.967 12.572,-30.351l-0,-0.041c-0,-11.384 -4.522,-22.302 -12.572,-30.352c-8.049,-8.049 -18.967,-12.572 -30.351,-12.572l-22.536,0c-5.035,0 -9.418,-3.443 -10.61,-8.336c-8.115,-33.325 -38.189,-58.092 -74,-58.092c-42.033,0 -76.158,34.126 -76.158,76.158c0,41.704 33.593,75.625 75.167,76.152l0.167,0.006l12.376,0l-11.644,21.84Z" style="fill:#fff;"/><path d="M2310.17,214.2c-0,0 29.03,35.122 28.704,51.523c-0.326,16.402 -13.907,29.453 -30.308,29.126c-16.401,-0.326 -29.452,-13.906 -29.126,-30.307c0.326,-16.402 30.73,-50.342 30.73,-50.342Z" style="fill:#44d3ff;"/><path d="M2263.77,267.928c-0,-0 19.384,23.452 19.166,34.403c-0.217,10.952 -9.285,19.666 -20.237,19.448c-10.951,-0.218 -19.666,-9.286 -19.448,-20.237c0.218,-10.952 20.519,-33.614 20.519,-33.614Z" style="fill:#fff;"/><path d="M2356.09,267.928c0,-0 19.385,23.452 19.167,34.403c-0.218,10.952 -9.286,19.666 -20.237,19.448c-10.952,-0.218 -19.666,-9.286 -19.449,-20.237c0.218,-10.952 20.519,-33.614 20.519,-33.614Z" style="fill:#aeedff;"/><path d="M2276.22,247.568l-1.037,0l-0.006,-0.007l-0.133,-0.001c-53.498,-0.678 -96.73,-44.324 -96.73,-97.99c0,-54.086 43.911,-97.997 97.998,-97.997c43.045,-0 79.643,27.816 92.789,66.428c0,-0 14.357,-0 14.357,-0c17.176,-0 33.648,6.823 45.794,18.968c12.145,12.146 18.968,28.618 18.968,45.795c0,0.013 0,0.027 0,0.041c0,17.176 -6.823,33.649 -18.968,45.794c-12.146,12.146 -28.618,18.969 -45.794,18.969l-41.1,0l-11.644,-21.84l52.744,0c11.384,0 22.301,-4.522 30.351,-12.572c8.049,-8.049 12.572,-18.967 12.572,-30.351l-0,-0.041c-0,-11.384 -4.523,-22.302 -12.572,-30.352c-8.05,-8.049 -18.967,-12.572 -30.352,-12.572l-22.535,0c-5.036,0 -9.418,-3.443 -10.61,-8.336c-8.116,-33.325 -38.189,-58.092 -74,-58.092c-42.033,0 -76.158,34.126 -76.158,76.158c-0,41.704 33.592,75.625 75.167,76.152l0.167,0.006l12.375,0l-11.643,21.84Z" style="fill:#fff;"/><path d="M1778.15,214.2c-0,0 29.03,35.122 28.704,51.523c-0.326,16.402 -13.907,29.453 -30.308,29.126c-16.401,-0.326 -29.452,-13.906 -29.126,-30.307c0.326,-16.402 30.73,-50.342 30.73,-50.342Z" style="fill:#44d3ff;"/><path d="M1744.2,247.568l-1.038,0l-0.005,-0.007l-0.133,-0.001c-53.498,-0.678 -96.73,-44.324 -96.73,-97.99c0,-54.086 43.911,-97.997 97.998,-97.997c43.045,-0 79.643,27.816 92.789,66.428c0,-0 14.357,-0 14.357,-0c17.176,-0 33.648,6.823 45.794,18.968c12.145,12.146 18.968,28.618 18.968,45.795c0,0.013 0,0.027 0,0.041c0,17.176 -6.823,33.649 -18.968,45.794c-12.146,12.146 -28.618,18.969 -45.794,18.969l-41.1,0l-11.644,-21.84l52.744,0c11.384,0 22.301,-4.522 30.351,-12.572c8.049,-8.049 12.572,-18.967 12.572,-30.351l-0,-0.041c-0,-11.384 -4.523,-22.302 -12.572,-30.352c-8.05,-8.049 -18.967,-12.572 -30.352,-12.572l-22.535,0c-5.036,0 -9.418,-3.443 -10.61,-8.336c-8.116,-33.325 -38.189,-58.092 -74,-58.092c-42.033,0 -76.158,34.126 -76.158,76.158c-0,41.704 33.592,75.625 75.167,76.152l0.167,0.006l12.375,0l-11.643,21.84Z" style="fill:#fff;"/><path d="M1081.9,299.637l0.007,0.008l121.172,0c19.222,0 37.656,-7.636 51.248,-21.228c13.592,-13.592 21.228,-32.027 21.228,-51.249c0,-0.015 0,-0.03 0,-0.046c0,-19.222 -7.636,-37.656 -21.228,-51.249c-13.592,-13.592 -32.026,-21.228 -51.248,-21.228c-0,0 -16.067,0 -16.067,0c-14.711,-43.21 -55.668,-74.34 -103.841,-74.34c-60.528,0 -109.67,49.142 -109.67,109.67c0,60.058 48.381,108.903 108.251,109.661l0.148,0.001Zm0.349,-24.433l-0.187,-0.007c-46.526,-0.589 -84.12,-38.55 -84.12,-85.222c0,-47.039 38.19,-85.229 85.229,-85.229c40.076,0 73.732,27.717 82.815,65.011c1.333,5.476 6.238,9.329 11.873,9.329l25.22,0c12.74,0.001 24.958,5.062 33.966,14.07c9.008,9.008 14.069,21.226 14.069,33.966l0,0.047c0,12.739 -5.061,24.958 -14.069,33.966c-9.008,9.008 -21.226,14.069 -33.965,14.069l-120.831,0Z" style="fill:#fff;"/><path d="M1187,189.971c-28.293,-0.358 -51.155,-23.442 -51.155,-51.823c0,-28.605 23.223,-51.828 51.828,-51.828c24.371,0 44.835,16.858 50.358,39.537l13.413,0c8.5,0 16.651,3.377 22.661,9.387c6.01,6.01 9.386,14.161 9.386,22.66c-0,0.008 -0,0.016 -0,0.025c-0,8.499 -3.376,16.65 -9.386,22.66c-6.01,6.01 -14.161,9.386 -22.661,9.386l-64.444,0l0,-0.004Z" style="fill:#fff;"/><path d="M638.514,299.637l0.007,0.008l120.364,0c19.094,0 37.406,-7.585 50.908,-21.086c13.501,-13.502 21.086,-31.814 21.086,-50.908c0,-0.015 0,-0.03 0,-0.046c0,-19.094 -7.585,-37.406 -21.086,-50.907c-13.502,-13.502 -31.814,-21.087 -50.908,-21.087c0,0 -15.959,0 -15.959,0c-14.614,-42.923 -55.298,-73.845 -103.15,-73.845c-60.125,0 -108.939,48.814 -108.939,108.94c-0,59.657 48.058,108.177 107.53,108.93l0.147,0.001Zm0.346,-24.27l-0.185,-0.007c-46.217,-0.585 -83.56,-38.294 -83.56,-84.654c0,-46.726 37.936,-84.662 84.661,-84.662c39.81,0 73.241,27.533 82.263,64.579c1.325,5.438 6.197,9.266 11.795,9.266l25.051,0c12.656,0.001 24.792,5.028 33.741,13.976c8.948,8.948 13.975,21.085 13.975,33.74l0,0.046c0,12.655 -5.027,24.792 -13.975,33.74c-8.949,8.949 -21.085,13.976 -33.74,13.976l-120.026,0Z" style="fill:#fff;"/><circle cx="747.505" cy="148.396" r="58.487" style="fill:#ffc900;"/><circle cx="273.807" cy="189.975" r="86.101" style="fill:#ffc900;"/><path d="M3333.47,158.135l58.772,-0l-51.645,47.853l30.231,0l-101.332,88.867l40.537,-57.232l-19.845,0l43.282,-79.488Z" style="fill:#ffb600;"/><path d="M1455.79,77.825l-0,217.03c-0,4.638 3.765,8.403 8.403,8.403c4.637,0 8.402,-3.765 8.402,-8.403l0,-217.03c0,-4.637 -3.765,-8.402 -8.402,-8.402c-4.638,-0 -8.403,3.765 -8.403,8.402Z" style="fill:#fff;fill-opacity:0.12;"/></g></svg>