<?xml version="1.0" encoding="UTF-8" standalone="no"?><!DOCTYPE svg PUBLIC "-//W3C//DTD SVG 1.1//EN" "http://www.w3.org/Graphics/SVG/1.1/DTD/svg11.dtd"><svg width="100%" height="100%" viewBox="0 0 3750 146" version="1.1" xmlns="http://www.w3.org/2000/svg" xmlns:xlink="http://www.w3.org/1999/xlink" xml:space="preserve" xmlns:serif="http://www.serif.com/" style="fill-rule:evenodd;clip-rule:evenodd;stroke-linejoin:round;stroke-miterlimit:2;"><g><path d="M3750,72.912c-0,-40.268 -32.644,-72.912 -72.912,-72.912c-475.359,0 -3128.82,0 -3604.18,0c-40.268,0 -72.912,32.644 -72.912,72.912c-0,0.003 -0,0.006 -0,0.009c0,40.268 32.644,72.912 72.912,72.912c475.359,0 3128.82,0 3604.18,0c40.268,0 72.912,-32.644 72.912,-72.912c0,-0.003 0,-0.006 0,-0.009Z" style="fill:#c38a18;"/><rect x="499.733" y="0" width="3250.27" height="145.833" style="fill:#e6aa32;"/><rect x="905.767" y="0" width="2844.23" height="145.833" style="fill:#fd6f30;"/><rect x="1368.02" y="0" width="2381.98" height="145.833" style="fill:#fba82f;"/><rect x="1875" y="0" width="1875" height="145.833" style="fill:#f9c995;"/><path d="M3750,72.912c-0,-40.268 -32.644,-72.912 -72.912,-72.912c-84.164,0 -221.771,0 -305.935,0c-40.268,0 -72.912,32.644 -72.912,72.912c-0,0.003 -0,0.006 -0,0.009c-0,40.268 32.644,72.912 72.912,72.912c84.164,0 221.771,0 305.935,0c40.268,0 72.912,-32.644 72.912,-72.912c0,-0.003 0,-0.006 0,-0.009Z" style="fill:#fb302f;"/><rect x="2867.22" y="0" width="514.226" height="145.833" style="fill:#fc6c6a;"/><rect x="2379.98" y="0" width="532.966" height="145.833" style="fill:#fcd9bd;"/></g></svg>