<?xml version="1.0" encoding="UTF-8" standalone="no"?><!DOCTYPE svg PUBLIC "-//W3C//DTD SVG 1.1//EN" "http://www.w3.org/Graphics/SVG/1.1/DTD/svg11.dtd"><svg width="100%" height="100%" viewBox="0 0 4167 417" version="1.1" xmlns="http://www.w3.org/2000/svg" xmlns:xlink="http://www.w3.org/1999/xlink" xml:space="preserve" xmlns:serif="http://www.serif.com/" style="fill-rule:evenodd;clip-rule:evenodd;stroke-linejoin:round;stroke-miterlimit:2;"><path d="M4166.67,83.881c-0,-44.679 -36.22,-80.899 -80.899,-80.899c-527.902,-0 -3476.97,-0 -4004.87,-0c-44.679,-0 -80.899,36.22 -80.899,80.899c0,72.034 0,176.871 0,248.905c-0,44.679 36.22,80.899 80.899,80.899c527.902,-0 3476.97,-0 4004.87,-0c44.679,-0 80.899,-36.22 80.899,-80.899c-0,-72.034 -0,-176.871 -0,-248.905Z" style="fill:#0f0f0f;"/><path d="M3232.49,240.495c0,-0 34.968,42.305 34.575,62.061c-0.392,19.756 -16.751,35.477 -36.507,35.084c-19.755,-0.393 -35.476,-16.751 -35.083,-36.507c0.393,-19.756 37.015,-60.638 37.015,-60.638Z" style="fill:#44d3ff;"/><path d="M3231.99,346.151c0,-0 17.228,20.842 17.034,30.575c-0.193,9.733 -8.253,17.478 -17.986,17.285c-9.733,-0.194 -17.477,-8.253 -17.284,-17.986c0.194,-9.733 18.236,-29.874 18.236,-29.874Z" style="fill:#44d3ff;"/><path d="M3176.59,305.212c0,-0 23.35,28.248 23.087,41.44c-0.262,13.191 -11.185,23.688 -24.376,23.426c-13.192,-0.263 -23.689,-11.185 -23.426,-24.377c0.262,-13.191 24.715,-40.489 24.715,-40.489Z" style="fill:#fff;"/><path d="M3287.79,305.212c0,-0 23.349,28.248 23.087,41.44c-0.262,13.191 -11.185,23.688 -24.376,23.426c-13.192,-0.263 -23.689,-11.185 -23.426,-24.377c0.262,-13.191 24.715,-40.489 24.715,-40.489Z" style="fill:#aeedff;"/><path d="M3191.59,280.688l-1.25,-0l-0.007,-0.009l-0.16,-0.001c-64.441,-0.816 -116.515,-53.39 -116.515,-118.032c0,-65.149 52.893,-118.042 118.042,-118.042c51.85,-0 95.934,33.505 111.768,80.015c0,-0 17.293,-0 17.293,-0c20.69,-0 40.532,8.219 55.161,22.848c14.63,14.63 22.848,34.472 22.848,55.161c0,0.017 0,0.033 0,0.05c0,20.689 -8.218,40.531 -22.848,55.161c-14.629,14.63 -34.471,22.849 -55.161,22.849l-49.506,-0l-14.025,-26.307l63.532,-0c13.712,-0 26.862,-5.448 36.558,-15.144c9.696,-9.696 15.144,-22.847 15.144,-36.559l-0,-0.05c-0,-13.712 -5.448,-26.863 -15.144,-36.559c-9.696,-9.696 -22.846,-15.143 -36.559,-15.144l-27.145,0c-6.065,0 -11.344,-4.147 -12.78,-10.041c-9.775,-40.141 -46.001,-69.974 -89.136,-69.974c-50.63,0 -91.735,41.106 -91.735,91.736c-0,50.234 40.463,91.093 90.541,91.727l0.202,0.008l14.906,-0l-14.024,26.307Z" style="fill:#fff;"/><path d="M3811,240.495c0,-0 34.968,42.305 34.576,62.061c-0.393,19.756 -16.751,35.477 -36.507,35.084c-19.756,-0.393 -35.477,-16.751 -35.084,-36.507c0.393,-19.756 37.015,-60.638 37.015,-60.638Z" style="fill:#44d3ff;"/><path d="M3755.1,305.212c-0,-0 23.349,28.248 23.086,41.44c-0.262,13.191 -11.185,23.688 -24.376,23.426c-13.192,-0.263 -23.688,-11.185 -23.426,-24.377c0.262,-13.191 24.716,-40.489 24.716,-40.489Z" style="fill:#fff;"/><path d="M3866.3,305.212c-0,-0 23.349,28.248 23.086,41.44c-0.262,13.191 -11.185,23.688 -24.376,23.426c-13.192,-0.263 -23.689,-11.185 -23.426,-24.377c0.262,-13.191 24.716,-40.489 24.716,-40.489Z" style="fill:#aeedff;"/><path d="M3770.1,280.688l-1.25,-0l-0.007,-0.009l-0.16,-0.001c-64.441,-0.816 -116.515,-53.39 -116.515,-118.032c0,-65.149 52.893,-118.042 118.042,-118.042c51.85,-0 95.934,33.505 111.768,80.015c0,-0 17.293,-0 17.293,-0c20.69,-0 40.532,8.219 55.161,22.848c14.63,14.63 22.849,34.472 22.848,55.161c0,0.017 0,0.033 0,0.05c0.001,20.689 -8.218,40.531 -22.848,55.161c-14.629,14.63 -34.471,22.849 -55.161,22.849l-49.506,-0l-14.025,-26.307l63.532,-0c13.712,-0 26.863,-5.448 36.558,-15.144c9.697,-9.696 15.144,-22.847 15.144,-36.559l-0,-0.05c-0,-13.712 -5.447,-26.863 -15.144,-36.559c-9.695,-9.696 -22.846,-15.143 -36.559,-15.144l-27.145,0c-6.065,0 -11.344,-4.147 -12.779,-10.041c-9.776,-40.141 -46.001,-69.974 -89.137,-69.974c-50.63,0 -91.735,41.106 -91.735,91.736c0,50.234 40.464,91.093 90.541,91.727l0.202,0.008l14.907,-0l-14.025,26.307Z" style="fill:#fff;"/><path d="M2674.93,240.495c-0,-0 34.968,42.305 34.575,62.061c-0.393,19.756 -16.751,35.477 -36.507,35.084c-19.756,-0.393 -35.476,-16.751 -35.083,-36.507c0.392,-19.756 37.015,-60.638 37.015,-60.638Z" style="fill:#44d3ff;"/><path d="M2619.04,305.212c0,-0 23.349,28.248 23.087,41.44c-0.262,13.191 -11.185,23.688 -24.377,23.426c-13.191,-0.263 -23.688,-11.185 -23.426,-24.377c0.263,-13.191 24.716,-40.489 24.716,-40.489Z" style="fill:#fff;"/><path d="M2730.24,305.212c-0,-0 23.349,28.248 23.087,41.44c-0.263,13.191 -11.185,23.688 -24.377,23.426c-13.191,-0.263 -23.688,-11.185 -23.426,-24.377c0.262,-13.191 24.716,-40.489 24.716,-40.489Z" style="fill:#aeedff;"/><path d="M2634.03,280.688l-1.25,-0l-0.007,-0.009l-0.159,-0.001c-64.441,-0.816 -116.515,-53.39 -116.515,-118.032c-0,-65.149 52.893,-118.042 118.042,-118.042c51.85,-0 95.933,33.505 111.768,80.015c-0,-0 17.293,-0 17.293,-0c20.689,-0 40.531,8.219 55.161,22.848c14.629,14.63 22.848,34.472 22.848,55.161c-0,0.017 -0,0.033 -0,0.05c0,20.689 -8.219,40.531 -22.848,55.161c-14.63,14.63 -34.472,22.849 -55.161,22.849l-49.507,-0l-14.024,-26.307l63.532,-0c13.712,-0 26.862,-5.448 36.558,-15.144c9.696,-9.696 15.143,-22.847 15.143,-36.559l0,-0.05c0,-13.712 -5.447,-26.863 -15.143,-36.559c-9.696,-9.696 -22.846,-15.143 -36.559,-15.144l-27.145,0c-6.066,0 -11.345,-4.147 -12.78,-10.041c-9.776,-40.141 -46.001,-69.974 -89.136,-69.974c-50.63,0 -91.736,41.106 -91.736,91.736c0,50.234 40.464,91.093 90.542,91.727l0.201,0.008l14.907,-0l-14.025,26.307Z" style="fill:#fff;"/><path d="M2091.89,240.495c-0,-0 34.968,42.305 34.575,62.061c-0.393,19.756 -16.751,35.477 -36.507,35.084c-19.756,-0.393 -35.476,-16.751 -35.083,-36.507c0.393,-19.756 37.015,-60.638 37.015,-60.638Z" style="fill:#44d3ff;"/><path d="M2050.99,280.688l-1.25,-0l-0.007,-0.009l-0.159,-0.001c-64.441,-0.816 -116.515,-53.39 -116.515,-118.032c-0,-65.149 52.893,-118.042 118.042,-118.042c51.85,-0 95.933,33.505 111.768,80.015c-0,-0 17.293,-0 17.293,-0c20.689,-0 40.531,8.219 55.161,22.848c14.629,14.63 22.848,34.472 22.848,55.161c-0,0.017 -0,0.033 -0,0.05c0,20.689 -8.219,40.531 -22.848,55.161c-14.63,14.63 -34.472,22.849 -55.161,22.849l-49.507,-0l-14.024,-26.307l63.532,-0c13.712,-0 26.862,-5.448 36.558,-15.144c9.696,-9.696 15.143,-22.847 15.143,-36.559l0,-0.05c0,-13.712 -5.447,-26.863 -15.143,-36.559c-9.696,-9.696 -22.846,-15.143 -36.559,-15.144l-27.145,0c-6.066,0 -11.345,-4.147 -12.78,-10.041c-9.776,-40.141 -46.001,-69.974 -89.136,-69.974c-50.63,0 -91.735,41.106 -91.735,91.736c-0,50.234 40.463,91.093 90.541,91.727l0.201,0.008l14.907,-0l-14.025,26.307Z" style="fill:#fff;"/><path d="M1253.22,343.407l0.008,0.01l145.955,-0c23.154,-0 45.359,-9.198 61.731,-25.57c16.373,-16.372 25.57,-38.578 25.57,-61.732c0,-0.018 0,-0.037 0,-0.055c0,-23.154 -9.197,-45.359 -25.57,-61.731c-16.372,-16.372 -38.577,-25.57 -61.731,-25.57c0,-0 -19.352,-0 -19.352,-0c-17.721,-52.049 -67.055,-89.546 -125.081,-89.546c-72.909,0 -132.102,59.193 -132.102,132.102c0,72.342 58.277,131.178 130.393,132.091l0.179,0.001Zm0.419,-29.43l-0.225,-0.009c-56.042,-0.71 -101.326,-46.436 -101.326,-102.653c0,-56.66 46.002,-102.662 102.662,-102.662c48.273,0 88.813,33.387 99.753,78.309c1.606,6.595 7.514,11.237 14.302,11.237l30.378,-0c15.347,0 30.063,6.096 40.914,16.947c10.851,10.851 16.947,25.568 16.947,40.914l-0,0.056c0,15.345 -6.096,30.062 -16.947,40.914c-10.851,10.85 -25.567,16.946 -40.912,16.947l-145.546,-0Z" style="fill:#fff;"/><path d="M1379.82,211.31c-34.08,-0.432 -61.619,-28.237 -61.619,-62.423c0,-34.455 27.974,-62.428 62.429,-62.428c29.355,-0 54.006,20.305 60.659,47.623l16.156,0c10.238,0 20.056,4.067 27.295,11.307c7.239,7.239 11.306,17.057 11.306,27.295c0,0.01 0,0.02 0,0.03c0,10.237 -4.067,20.056 -11.306,27.295c-7.239,7.239 -17.057,11.306 -27.295,11.306l-77.625,0l-0,-0.005Z" style="fill:#fff;"/><path d="M719.145,343.407l0.008,0.01l144.983,-0c23,-0 45.057,-9.137 61.32,-25.4c16.263,-16.263 25.4,-38.321 25.399,-61.32c0,-0.018 0,-0.037 0,-0.055c0.001,-23 -9.136,-45.057 -25.399,-61.32c-16.263,-16.263 -38.32,-25.4 -61.32,-25.4c0,-0 -19.224,-0 -19.224,-0c-17.602,-51.702 -66.608,-88.949 -124.247,-88.949c-72.424,-0 -131.222,58.799 -131.222,131.222c-0,71.86 57.888,130.304 129.524,131.211l0.178,0.001Zm0.417,-29.234l-0.224,-0.009c-55.67,-0.705 -100.651,-46.126 -100.651,-101.969c-0,-56.283 45.695,-101.978 101.978,-101.978c47.951,0 88.221,33.164 99.089,77.787c1.595,6.551 7.464,11.162 14.206,11.162l30.176,-0c15.244,0 29.863,6.056 40.641,16.834c10.779,10.779 16.834,25.398 16.834,40.642l0,0.055c0,15.244 -6.055,29.863 -16.834,40.641c-10.778,10.779 -25.397,16.834 -40.64,16.835l-144.575,-0Z" style="fill:#fff;"/><circle cx="850.428" cy="161.232" r="70.449" style="fill:#ffc900;"/><circle cx="279.841" cy="211.315" r="103.711" style="fill:#ffc900;"/><path d="M3738.98,172.962l70.793,0l-62.207,57.641l36.414,-0l-122.058,107.044l48.827,-68.939l-23.903,0l52.134,-95.746Z" style="fill:#ffb600;"/><path d="M1703.58,76.226l-0,261.421c-0,5.586 4.535,10.121 10.121,10.121c5.587,0 10.122,-4.535 10.122,-10.121l-0,-261.421c-0,-5.586 -4.535,-10.121 -10.122,-10.121c-5.586,-0 -10.121,4.535 -10.121,10.121Z" style="fill:#fff;fill-opacity:0.12;"/></svg>