<?xml version="1.0" encoding="UTF-8" standalone="no"?><!DOCTYPE svg PUBLIC "-//W3C//DTD SVG 1.1//EN" "http://www.w3.org/Graphics/SVG/1.1/DTD/svg11.dtd"><svg width="100%" height="100%" viewBox="0 0 2250 1250" version="1.1" xmlns="http://www.w3.org/2000/svg" xmlns:xlink="http://www.w3.org/1999/xlink" xml:space="preserve" xmlns:serif="http://www.serif.com/" style="fill-rule:evenodd;clip-rule:evenodd;stroke-linejoin:round;stroke-miterlimit:2;"><g><g><g><path d="M360.94,727.508c-2.432,0.052 -4.885,0.078 -7.344,0.078c-195.155,-0 -353.596,-161.15 -353.596,-359.641c0,-198.49 158.441,-359.64 353.596,-359.64c159.773,0 294.939,108.014 338.698,256.108l4.819,0c127.816,0 231.586,103.77 231.586,231.586c0,127.816 -103.77,231.587 -231.586,231.587l-330.138,-0c-2.02,-0 -4.033,-0.026 -6.035,-0.078Z" style="fill:#334866;"/><path d="M768.97,584.319c-1.432,0.031 -2.876,0.047 -4.324,0.047c-114.899,-0 -208.183,-96.975 -208.183,-216.421c0,-119.445 93.284,-216.42 208.183,-216.42c94.068,-0 173.648,64.999 199.412,154.118l2.837,-0c75.253,-0 136.348,62.446 136.348,139.361c0,76.916 -61.095,139.362 -136.348,139.362l-194.372,-0c-1.189,-0 -2.374,-0.016 -3.553,-0.047Z" style="fill:#b5f200;"/><g><path d="M471.978,817.456l40.69,139.444l37.032,-129.614c3.963,-13.563 6.896,-22.821 8.801,-27.774c1.905,-4.953 5.487,-9.678 10.744,-14.173c5.258,-4.496 12.459,-6.744 21.603,-6.744c9.296,0 16.573,2.248 21.831,6.744c5.257,4.495 8.953,9.372 11.087,14.63c2.133,5.257 5.105,14.363 8.915,27.317l37.033,129.614l41.147,-139.444c2.743,-10.058 4.953,-17.335 6.629,-21.831c1.677,-4.495 4.496,-8.458 8.458,-11.887c3.963,-3.429 9.677,-5.143 17.145,-5.143c7.467,0 13.944,2.591 19.431,7.772c5.486,5.182 8.229,11.278 8.229,18.288c0,6.401 -2.362,16.078 -7.086,29.032l-50.977,149.502c-4.42,12.649 -7.849,21.793 -10.287,27.431c-2.439,5.639 -6.287,10.668 -11.544,15.088c-5.258,4.419 -12.459,6.629 -21.603,6.629c-9.448,-0 -16.878,-2.362 -22.288,-7.087c-5.41,-4.724 -9.41,-10.515 -12.001,-17.373c-2.591,-6.858 -5.41,-15.773 -8.458,-26.746l-35.661,-121.613l-34.518,121.613c-4.572,16.917 -9.525,29.68 -14.859,38.29c-5.334,8.611 -14.706,12.916 -28.117,12.916c-6.858,-0 -12.687,-1.334 -17.488,-4c-4.8,-2.667 -8.801,-6.477 -12.001,-11.43c-3.201,-4.953 -6.02,-10.821 -8.458,-17.602c-2.439,-6.782 -4.344,-12.154 -5.715,-16.116l-50.52,-149.502c-5.029,-14.021 -7.544,-23.698 -7.544,-29.032c0,-6.705 2.667,-12.725 8.001,-18.059c5.334,-5.334 11.887,-8.001 19.659,-8.001c10.363,0 17.374,2.934 21.031,8.801c3.658,5.867 7.544,15.887 11.659,30.06Z" style="fill:#334866;fill-rule:nonzero;"/><path d="M981.748,920.782l-122.071,-0c0.152,14.173 3.01,26.67 8.572,37.49c5.563,10.82 12.954,18.973 22.174,24.46c9.22,5.486 19.393,8.229 30.518,8.229c7.467,0 14.287,-0.876 20.459,-2.629c6.172,-1.752 12.154,-4.496 17.945,-8.229c5.791,-3.734 11.125,-7.734 16.002,-12.002c4.877,-4.267 11.201,-10.058 18.973,-17.373c3.201,-2.743 7.773,-4.115 13.716,-4.115c6.401,0 11.582,1.753 15.545,5.258c3.962,3.505 5.943,8.458 5.943,14.859c0,5.639 -2.21,12.23 -6.629,19.773c-4.42,7.544 -11.087,14.783 -20.002,21.717c-8.916,6.934 -20.117,12.687 -33.604,17.259c-13.487,4.572 -28.994,6.858 -46.519,6.858c-40.081,-0 -71.246,-11.43 -93.496,-34.289c-22.25,-22.86 -33.375,-53.873 -33.375,-93.039c-0,-18.44 2.743,-35.547 8.229,-51.32c5.486,-15.773 13.487,-29.299 24.003,-40.576c10.515,-11.277 23.469,-19.926 38.861,-25.946c15.392,-6.019 32.461,-9.029 51.206,-9.029c24.383,-0 45.3,5.143 62.749,15.43c17.45,10.287 30.518,23.584 39.205,39.89c8.686,16.307 13.03,32.918 13.03,49.834c-0,15.697 -4.496,25.87 -13.487,30.518c-8.992,4.648 -21.641,6.972 -37.947,6.972Zm-122.071,-35.432l113.155,-0c-1.524,-21.336 -7.277,-37.3 -17.259,-47.891c-9.982,-10.592 -23.126,-15.888 -39.433,-15.888c-15.544,0 -28.307,5.372 -38.289,16.116c-9.983,10.744 -16.04,26.632 -18.174,47.663Z" style="fill:#334866;fill-rule:nonzero;"/><path d="M1243.49,997.133c-15.087,11.735 -29.679,20.536 -43.776,26.403c-14.097,5.867 -29.908,8.801 -47.434,8.801c-16.001,-0 -30.06,-3.162 -42.176,-9.487c-12.115,-6.324 -21.45,-14.897 -28.003,-25.717c-6.553,-10.82 -9.829,-22.555 -9.829,-35.204c-0,-17.068 5.41,-31.622 16.23,-43.662c10.82,-12.039 25.679,-20.116 44.576,-24.231c3.963,-0.914 13.792,-2.972 29.489,-6.172c15.697,-3.2 29.146,-6.134 40.347,-8.801c11.202,-2.667 23.355,-5.905 36.462,-9.715c-0.762,-16.459 -4.077,-28.537 -9.944,-36.233c-5.868,-7.696 -18.021,-11.544 -36.461,-11.544c-15.85,0 -27.775,2.21 -35.776,6.629c-8.001,4.42 -14.859,11.049 -20.573,19.888c-5.715,8.839 -9.754,14.669 -12.116,17.488c-2.362,2.819 -7.429,4.229 -15.202,4.229c-7.01,-0 -13.068,-2.248 -18.173,-6.744c-5.105,-4.495 -7.658,-10.248 -7.658,-17.259c-0,-10.972 3.886,-21.64 11.658,-32.003c7.773,-10.363 19.888,-18.897 36.347,-25.603c16.459,-6.705 36.957,-10.058 61.493,-10.058c27.431,-0 48.995,3.238 64.692,9.715c15.697,6.477 26.784,16.726 33.261,30.746c6.477,14.021 9.715,32.613 9.715,55.778c0,14.63 -0.038,27.05 -0.114,37.261c-0.076,10.211 -0.19,21.564 -0.343,34.061c0,11.735 1.943,23.964 5.829,36.69c3.887,12.725 5.83,20.916 5.83,24.574c-0,6.4 -3.01,12.23 -9.03,17.487c-6.02,5.258 -12.839,7.887 -20.459,7.887c-6.401,-0 -12.725,-3.01 -18.974,-9.03c-6.248,-6.019 -12.877,-14.744 -19.888,-26.174Zm-4.114,-90.295c-9.144,3.352 -22.441,6.896 -39.89,10.629c-17.45,3.734 -29.527,6.477 -36.233,8.23c-6.705,1.752 -13.106,5.181 -19.202,10.287c-6.096,5.105 -9.144,12.229 -9.144,21.373c0,9.449 3.581,17.488 10.744,24.117c7.163,6.63 16.535,9.944 28.117,9.944c12.345,0 23.736,-2.705 34.176,-8.115c10.439,-5.41 18.097,-12.382 22.974,-20.917c5.638,-9.448 8.458,-24.993 8.458,-46.633l-0,-8.915Z" style="fill:#334866;fill-rule:nonzero;"/><path d="M1355.73,784.081l6.858,0l0,-37.489c0,-10.059 0.267,-17.945 0.8,-23.66c0.534,-5.715 2.019,-10.63 4.458,-14.745c2.438,-4.267 5.943,-7.734 10.515,-10.401c4.572,-2.667 9.677,-4 15.316,-4c7.925,-0 15.087,2.972 21.488,8.915c4.267,3.962 6.972,8.801 8.115,14.516c1.143,5.715 1.715,13.83 1.715,24.345l-0,42.519l22.859,0c8.84,0 15.583,2.096 20.231,6.287c4.648,4.191 6.972,9.563 6.972,16.116c0,8.382 -3.314,14.249 -9.944,17.602c-6.629,3.352 -16.116,5.029 -28.46,5.029l-11.658,-0l-0,114.755c-0,9.754 0.343,17.259 1.029,22.517c0.685,5.258 2.514,9.525 5.486,12.801c2.972,3.277 7.81,4.915 14.516,4.915c3.657,0 8.61,-0.648 14.858,-1.943c6.249,-1.295 11.125,-1.943 14.631,-1.943c5.029,-0 9.563,2.019 13.601,6.058c4.039,4.038 6.058,9.029 6.058,14.973c-0,10.058 -5.486,17.754 -16.459,23.088c-10.973,5.334 -26.746,8.001 -47.319,8.001c-19.507,-0 -34.29,-3.277 -44.348,-9.83c-10.058,-6.553 -16.65,-15.62 -19.774,-27.203c-3.124,-11.582 -4.686,-27.05 -4.686,-46.405l0,-119.784l-8.229,-0c-8.992,-0 -15.85,-2.134 -20.574,-6.401c-4.724,-4.267 -7.087,-9.677 -7.087,-16.23c0,-6.553 2.477,-11.925 7.43,-16.116c4.953,-4.191 12.153,-6.287 21.602,-6.287Z" style="fill:#334866;fill-rule:nonzero;"/><path d="M1579.07,723.732l-0,92.581c7.924,-9.143 15.659,-16.382 23.202,-21.716c7.544,-5.334 15.888,-9.335 25.032,-12.002c9.143,-2.667 18.973,-4 29.489,-4c15.849,0 29.908,3.353 42.176,10.058c12.268,6.706 21.907,16.459 28.917,29.261c4.42,7.467 7.391,15.811 8.915,25.031c1.524,9.22 2.286,19.85 2.286,31.889l0,119.556c0,12.497 -2.857,21.945 -8.572,28.346c-5.715,6.401 -13.297,9.601 -22.746,9.601c-20.573,-0 -30.86,-12.649 -30.86,-37.947l-0,-105.383c-0,-19.964 -2.972,-35.318 -8.915,-46.062c-5.944,-10.744 -17.221,-16.116 -33.833,-16.116c-11.125,-0 -21.145,3.162 -30.06,9.487c-8.915,6.324 -15.583,14.973 -20.002,25.945c-3.353,9.297 -5.029,25.832 -5.029,49.606l-0,82.523c-0,12.344 -2.781,21.755 -8.344,28.232c-5.563,6.476 -13.297,9.715 -23.203,9.715c-20.573,-0 -30.86,-12.649 -30.86,-37.947l-0,-270.658c-0,-12.649 2.705,-22.136 8.115,-28.46c5.41,-6.325 12.992,-9.487 22.745,-9.487c9.906,-0 17.64,3.2 23.203,9.601c5.563,6.401 8.344,15.849 8.344,28.346Z" style="fill:#334866;fill-rule:nonzero;"/><path d="M1975,920.782l-122.071,-0c0.153,14.173 3.01,26.67 8.573,37.49c5.562,10.82 12.953,18.973 22.173,24.46c9.22,5.486 19.393,8.229 30.518,8.229c7.467,0 14.287,-0.876 20.459,-2.629c6.172,-1.752 12.154,-4.496 17.945,-8.229c5.791,-3.734 11.125,-7.734 16.002,-12.002c4.877,-4.267 11.201,-10.058 18.973,-17.373c3.201,-2.743 7.773,-4.115 13.716,-4.115c6.401,0 11.582,1.753 15.545,5.258c3.962,3.505 5.943,8.458 5.943,14.859c0,5.639 -2.21,12.23 -6.629,19.773c-4.42,7.544 -11.087,14.783 -20.002,21.717c-8.915,6.934 -20.117,12.687 -33.604,17.259c-13.487,4.572 -28.994,6.858 -46.519,6.858c-40.081,-0 -71.246,-11.43 -93.496,-34.289c-22.25,-22.86 -33.375,-53.873 -33.375,-93.039c-0,-18.44 2.743,-35.547 8.229,-51.32c5.487,-15.773 13.487,-29.299 24.003,-40.576c10.515,-11.277 23.469,-19.926 38.861,-25.946c15.392,-6.019 32.461,-9.029 51.206,-9.029c24.383,-0 45.3,5.143 62.75,15.43c17.449,10.287 30.517,23.584 39.204,39.89c8.686,16.307 13.03,32.918 13.03,49.834c-0,15.697 -4.496,25.87 -13.487,30.518c-8.992,4.648 -21.641,6.972 -37.947,6.972Zm-122.071,-35.432l113.155,-0c-1.524,-21.336 -7.277,-37.3 -17.259,-47.891c-9.982,-10.592 -23.126,-15.888 -39.433,-15.888c-15.544,0 -28.307,5.372 -38.289,16.116c-9.982,10.744 -16.04,26.632 -18.174,47.663Z" style="fill:#334866;fill-rule:nonzero;"/><path d="M2140.96,942.27l-0,52.12c-0,12.649 -2.972,22.136 -8.916,28.46c-5.943,6.325 -13.487,9.487 -22.631,9.487c-8.991,-0 -16.382,-3.2 -22.174,-9.601c-5.791,-6.401 -8.686,-15.849 -8.686,-28.346l-0,-173.733c-0,-28.041 10.134,-42.062 30.403,-42.062c10.363,0 17.831,3.277 22.403,9.83c4.571,6.553 7.086,16.23 7.543,29.031c7.468,-12.801 15.126,-22.478 22.974,-29.031c7.849,-6.553 18.326,-9.83 31.432,-9.83c13.106,0 25.831,3.277 38.176,9.83c12.344,6.553 18.516,15.239 18.516,26.06c0,7.62 -2.629,13.906 -7.887,18.859c-5.257,4.953 -10.934,7.429 -17.03,7.429c-2.286,0 -7.81,-1.409 -16.573,-4.229c-8.763,-2.819 -16.497,-4.229 -23.203,-4.229c-9.144,0 -16.611,2.4 -22.402,7.201c-5.791,4.8 -10.287,11.925 -13.487,21.374c-3.201,9.448 -5.41,20.688 -6.63,33.718c-1.219,13.03 -1.828,28.917 -1.828,47.662Z" style="fill:#334866;fill-rule:nonzero;"/></g><g><path d="M1221.18,408.3l0,207.134c0,14.351 -3.413,25.202 -10.238,32.553c-6.826,7.351 -15.489,11.026 -25.991,11.026c-10.501,0 -19.033,-3.763 -25.596,-11.288c-6.563,-7.526 -9.845,-18.29 -9.845,-32.291l0,-205.034c0,-14.177 3.282,-24.853 9.845,-32.028c6.563,-7.176 15.095,-10.764 25.596,-10.764c10.502,-0 19.165,3.588 25.991,10.764c6.825,7.175 10.238,17.151 10.238,29.928Zm-35.441,-74.033c-9.976,0 -18.508,-3.063 -25.596,-9.188c-7.089,-6.126 -10.633,-14.789 -10.633,-25.991c0,-10.151 3.632,-18.508 10.895,-25.071c7.263,-6.563 15.708,-9.845 25.334,-9.845c9.276,0 17.502,2.976 24.678,8.926c7.175,5.951 10.763,14.614 10.763,25.99c0,11.027 -3.5,19.646 -10.501,25.859c-7.001,6.213 -15.314,9.32 -24.94,9.32Z" style="fill:#b5f200;fill-rule:nonzero;"/><path d="M1360.32,407.25l-0,8.663c12.601,-16.627 26.384,-28.834 41.348,-36.623c14.964,-7.788 32.159,-11.682 51.586,-11.682c18.902,-0 35.792,4.113 50.668,12.339c14.877,8.226 25.99,19.864 33.341,34.916c4.726,8.751 7.788,18.202 9.189,28.353c1.4,10.151 2.1,23.102 2.1,38.854l-0,133.364c-0,14.351 -3.282,25.202 -9.845,32.553c-6.563,7.351 -15.095,11.026 -25.596,11.026c-10.677,0 -19.34,-3.763 -25.991,-11.288c-6.65,-7.526 -9.976,-18.29 -9.976,-32.291l0,-119.45c0,-23.628 -3.281,-41.698 -9.844,-54.212c-6.564,-12.514 -19.646,-18.771 -39.248,-18.771c-12.777,0 -24.415,3.807 -34.916,11.42c-10.502,7.613 -18.202,18.071 -23.103,31.372c-3.5,10.676 -5.25,30.628 -5.25,59.856l-0,89.785c-0,14.526 -3.369,25.421 -10.108,32.684c-6.738,7.264 -15.445,10.895 -26.121,10.895c-10.326,0 -18.815,-3.763 -25.465,-11.288c-6.651,-7.526 -9.976,-18.29 -9.976,-32.291l-0,-207.134c-0,-13.652 2.975,-23.847 8.926,-30.585c5.95,-6.738 14.089,-10.107 24.415,-10.107c6.3,-0 11.988,1.488 17.064,4.463c5.075,2.975 9.145,7.438 12.207,13.389c3.063,5.95 4.595,13.214 4.595,21.79Z" style="fill:#b5f200;fill-rule:nonzero;"/><path d="M1816.33,618.059l-0,-7.088c-9.626,11.026 -19.121,19.996 -28.485,26.909c-9.363,6.913 -19.514,12.164 -30.453,15.751c-10.938,3.588 -22.883,5.382 -35.835,5.382c-17.152,0 -33.034,-3.631 -47.649,-10.895c-14.614,-7.263 -27.259,-17.633 -37.935,-31.109c-10.676,-13.477 -18.77,-29.316 -24.283,-47.518c-5.514,-18.201 -8.27,-37.891 -8.27,-59.068c-0,-44.805 10.939,-79.721 32.816,-104.749c21.877,-25.027 50.668,-37.541 86.371,-37.541c20.652,0 38.067,3.544 52.243,10.632c14.177,7.089 28.003,17.984 41.48,32.685l-0,-105.798c-0,-14.702 2.931,-25.816 8.794,-33.341c5.863,-7.526 14.22,-11.289 25.072,-11.289c10.851,-0 19.208,3.457 25.071,10.37c5.863,6.913 8.795,17.108 8.795,30.584l-0,316.083c-0,13.651 -3.151,23.89 -9.451,30.716c-6.301,6.825 -14.439,10.238 -24.415,10.238c-9.801,0 -17.896,-3.544 -24.284,-10.632c-6.388,-7.088 -9.582,-17.196 -9.582,-30.322Zm-140.978,-105.273c0,19.427 3.019,35.966 9.058,49.617c6.038,13.652 14.307,23.934 24.808,30.847c10.501,6.913 21.965,10.37 34.391,10.37c12.602,-0 24.109,-3.282 34.523,-9.845c10.413,-6.563 18.727,-16.627 24.94,-30.19c6.213,-13.564 9.32,-30.497 9.32,-50.799c-0,-19.077 -3.107,-35.485 -9.32,-49.224c-6.213,-13.739 -14.614,-24.24 -25.203,-31.504c-10.588,-7.263 -22.183,-10.894 -34.785,-10.894c-13.126,-0 -24.852,3.719 -35.178,11.157c-10.326,7.438 -18.333,18.114 -24.021,32.028c-5.689,13.914 -8.533,30.06 -8.533,48.437Z" style="fill:#b5f200;fill-rule:nonzero;"/><path d="M2224.3,513.311c-0,21.352 -3.325,41.041 -9.976,59.068c-6.651,18.027 -16.277,33.516 -28.878,46.468c-12.601,12.951 -27.653,22.883 -45.155,29.796c-17.502,6.914 -37.191,10.37 -59.068,10.37c-21.703,0 -41.217,-3.5 -58.544,-10.501c-17.327,-7.001 -32.335,-17.02 -45.023,-30.059c-12.689,-13.039 -22.315,-28.441 -28.878,-46.205c-6.564,-17.764 -9.845,-37.41 -9.845,-58.937c-0,-21.703 3.325,-41.567 9.976,-59.594c6.65,-18.027 16.189,-33.429 28.615,-46.205c12.427,-12.776 27.478,-22.621 45.155,-29.534c17.677,-6.913 37.191,-10.37 58.544,-10.37c21.702,-0 41.391,3.5 59.068,10.501c17.677,7.001 32.816,16.977 45.417,29.928c12.602,12.952 22.184,28.353 28.747,46.205c6.563,17.852 9.845,37.541 9.845,59.069Zm-71.933,-0c0,-29.228 -6.432,-51.981 -19.295,-68.257c-12.864,-16.277 -30.147,-24.416 -51.849,-24.416c-14.002,0 -26.341,3.632 -37.017,10.895c-10.676,7.264 -18.902,17.983 -24.677,32.16c-5.776,14.176 -8.664,30.716 -8.664,49.618c0,18.727 2.844,35.091 8.532,49.092c5.688,14.002 13.827,24.722 24.415,32.16c10.589,7.438 23.059,11.157 37.411,11.157c21.702,0 38.985,-8.182 51.849,-24.546c12.863,-16.364 19.295,-38.985 19.295,-67.863Z" style="fill:#b5f200;fill-rule:nonzero;"/></g><g><path d="M565.874,1197.56c-0,9.314 -2.267,17.288 -6.8,23.923c-4.534,6.635 -11.231,11.663 -20.091,15.084c-8.861,3.421 -19.638,5.131 -32.331,5.131c-12.117,-0 -22.502,-1.855 -31.157,-5.564c-8.654,-3.709 -15.042,-8.345 -19.163,-13.909c-4.122,-5.564 -6.182,-11.148 -6.182,-16.753c-0,-3.709 1.318,-6.882 3.956,-9.52c2.638,-2.637 5.976,-3.956 10.015,-3.956c3.544,-0 6.264,0.865 8.16,2.596c1.895,1.731 3.709,4.163 5.44,7.295c3.461,6.017 7.603,10.509 12.425,13.476c4.822,2.968 11.395,4.451 19.72,4.451c6.759,0 12.302,-1.504 16.629,-4.513c4.328,-3.008 6.491,-6.449 6.491,-10.323c0,-5.935 -2.246,-10.262 -6.738,-12.982c-4.492,-2.72 -11.89,-5.316 -22.193,-7.789c-11.622,-2.885 -21.08,-5.914 -28.374,-9.088c-7.295,-3.173 -13.126,-7.356 -17.495,-12.549c-4.368,-5.192 -6.553,-11.58 -6.553,-19.163c0,-6.759 2.02,-13.147 6.059,-19.164c4.038,-6.017 9.993,-10.818 17.865,-14.404c7.872,-3.585 17.371,-5.378 28.498,-5.378c8.737,0 16.588,0.907 23.553,2.72c6.965,1.813 12.776,4.245 17.433,7.295c4.657,3.049 8.201,6.429 10.633,10.138c2.431,3.709 3.647,7.336 3.647,10.88c-0,3.874 -1.298,7.047 -3.895,9.52c-2.596,2.473 -6.285,3.709 -11.065,3.709c-3.462,0 -6.409,-0.989 -8.84,-2.967c-2.432,-1.978 -5.214,-4.946 -8.346,-8.902c-2.555,-3.297 -5.563,-5.935 -9.025,-7.913c-3.462,-1.978 -8.16,-2.967 -14.095,-2.967c-6.099,-0 -11.168,1.298 -15.207,3.894c-4.039,2.597 -6.058,5.832 -6.058,9.706c-0,3.544 1.483,6.45 4.451,8.716c2.967,2.267 6.965,4.142 11.992,5.626c5.028,1.483 11.952,3.297 20.771,5.44c10.468,2.555 19.02,5.605 25.655,9.149c6.635,3.544 11.663,7.727 15.084,12.549c3.42,4.822 5.131,10.324 5.131,16.506Z" style="fill:#b5f200;fill-rule:nonzero;"/><path d="M688.645,1181.36l-66.022,0c0.082,7.666 1.628,14.424 4.636,20.277c3.009,5.852 7.006,10.261 11.993,13.229c4.987,2.967 10.489,4.451 16.506,4.451c4.038,-0 7.727,-0.474 11.065,-1.422c3.338,-0.948 6.573,-2.432 9.706,-4.451c3.132,-2.02 6.017,-4.183 8.654,-6.491c2.638,-2.308 6.058,-5.44 10.262,-9.396c1.731,-1.484 4.204,-2.226 7.418,-2.226c3.462,0 6.264,0.948 8.407,2.844c2.144,1.895 3.215,4.574 3.215,8.036c0,3.05 -1.195,6.615 -3.585,10.695c-2.391,4.08 -5.997,7.995 -10.819,11.745c-4.821,3.751 -10.88,6.862 -18.174,9.335c-7.295,2.472 -15.682,3.709 -25.16,3.709c-21.678,-0 -38.534,-6.182 -50.568,-18.546c-12.034,-12.363 -18.051,-29.137 -18.051,-50.32c0,-9.973 1.484,-19.225 4.451,-27.756c2.967,-8.531 7.295,-15.846 12.982,-21.946c5.687,-6.099 12.693,-10.777 21.018,-14.033c8.325,-3.255 17.557,-4.883 27.695,-4.883c13.188,-0 24.501,2.782 33.938,8.345c9.438,5.564 16.506,12.755 21.204,21.575c4.698,8.819 7.047,17.804 7.047,26.953c0,8.489 -2.431,13.991 -7.294,16.505c-4.863,2.514 -11.705,3.771 -20.524,3.771Zm-66.022,-19.164l61.2,0c-0.824,-11.539 -3.936,-20.173 -9.334,-25.901c-5.399,-5.729 -12.508,-8.593 -21.328,-8.593c-8.407,-0 -15.31,2.905 -20.709,8.716c-5.399,5.811 -8.675,14.404 -9.829,25.778Z" style="fill:#b5f200;fill-rule:nonzero;"/><path d="M778.405,1192.98l0,28.189c0,6.841 -1.607,11.972 -4.822,15.393c-3.214,3.421 -7.294,5.131 -12.24,5.131c-4.863,-0 -8.86,-1.731 -11.992,-5.193c-3.133,-3.462 -4.699,-8.572 -4.699,-15.331l0,-93.964c0,-15.166 5.482,-22.749 16.444,-22.749c5.605,0 9.644,1.772 12.116,5.316c2.473,3.545 3.833,8.779 4.08,15.702c4.039,-6.923 8.181,-12.157 12.426,-15.702c4.245,-3.544 9.912,-5.316 17,-5.316c7.089,0 13.971,1.772 20.647,5.316c6.677,3.545 10.015,8.243 10.015,14.095c-0,4.121 -1.422,7.521 -4.266,10.2c-2.843,2.679 -5.913,4.018 -9.21,4.018c-1.237,0 -4.225,-0.762 -8.964,-2.287c-4.74,-1.525 -8.923,-2.287 -12.549,-2.287c-4.946,-0 -8.985,1.298 -12.117,3.894c-3.132,2.597 -5.563,6.45 -7.294,11.56c-1.731,5.111 -2.926,11.189 -3.586,18.237c-0.659,7.047 -0.989,15.64 -0.989,25.778Z" style="fill:#b5f200;fill-rule:nonzero;"/><path d="M876.326,1125.48l27.323,76.655l29.426,-79.993c2.308,-6.429 4.574,-10.983 6.8,-13.662c2.225,-2.679 5.605,-4.018 10.138,-4.018c4.286,0 7.933,1.443 10.942,4.327c3.008,2.885 4.513,6.223 4.513,10.015c-0,1.484 -0.268,3.215 -0.804,5.193c-0.536,1.978 -1.154,3.832 -1.855,5.563c-0.7,1.731 -1.504,3.709 -2.411,5.935l-32.392,80.364c-0.907,2.308 -2.082,5.234 -3.524,8.778c-1.442,3.544 -3.05,6.573 -4.822,9.087c-1.772,2.514 -3.956,4.472 -6.553,5.873c-2.596,1.401 -5.749,2.102 -9.458,2.102c-4.78,-0 -8.593,-1.092 -11.436,-3.277c-2.844,-2.184 -4.946,-4.574 -6.306,-7.17c-1.36,-2.597 -3.647,-7.728 -6.861,-15.393l-32.146,-79.499c-0.742,-1.978 -1.504,-3.956 -2.287,-5.934c-0.783,-1.978 -1.443,-3.998 -1.979,-6.058c-0.535,-2.061 -0.803,-3.833 -0.803,-5.317c-0,-2.308 0.7,-4.595 2.102,-6.862c1.401,-2.266 3.338,-4.121 5.811,-5.563c2.472,-1.443 5.151,-2.164 8.036,-2.164c5.605,0 9.458,1.607 11.56,4.822c2.102,3.214 4.43,8.613 6.986,16.196Z" style="fill:#b5f200;fill-rule:nonzero;"/><path d="M1023.45,1123.62l0,97.549c0,6.759 -1.607,11.869 -4.822,15.331c-3.214,3.462 -7.294,5.193 -12.24,5.193c-4.945,-0 -8.963,-1.772 -12.054,-5.317c-3.091,-3.544 -4.637,-8.613 -4.637,-15.207l0,-96.56c0,-6.677 1.546,-11.704 4.637,-15.084c3.091,-3.379 7.109,-5.069 12.054,-5.069c4.946,0 9.026,1.69 12.24,5.069c3.215,3.38 4.822,8.078 4.822,14.095Zm-16.691,-34.866c-4.698,0 -8.716,-1.442 -12.054,-4.327c-3.339,-2.885 -5.008,-6.965 -5.008,-12.24c0,-4.781 1.711,-8.716 5.131,-11.807c3.421,-3.091 7.398,-4.637 11.931,-4.637c4.369,0 8.243,1.401 11.622,4.204c3.38,2.802 5.069,6.882 5.069,12.24c0,5.193 -1.648,9.252 -4.945,12.178c-3.297,2.926 -7.212,4.389 -11.746,4.389Z" style="fill:#b5f200;fill-rule:nonzero;"/><path d="M1179.36,1199.91c0,4.203 -1.257,8.695 -3.771,13.476c-2.514,4.781 -6.346,9.335 -11.498,13.662c-5.152,4.327 -11.642,7.81 -19.473,10.447c-7.83,2.638 -16.65,3.957 -26.458,3.957c-20.853,-0 -37.132,-6.079 -48.837,-18.237c-11.704,-12.157 -17.556,-28.457 -17.556,-48.898c0,-13.847 2.679,-26.088 8.036,-36.72c5.358,-10.633 13.106,-18.855 23.244,-24.666c10.138,-5.811 22.255,-8.716 36.349,-8.716c8.737,-0 16.753,1.277 24.048,3.833c7.294,2.555 13.476,5.852 18.545,9.89c5.069,4.039 8.943,8.346 11.622,12.921c2.679,4.574 4.018,8.84 4.018,12.796c0,4.039 -1.504,7.459 -4.513,10.262c-3.008,2.802 -6.655,4.203 -10.941,4.203c-2.803,0 -5.131,-0.721 -6.986,-2.163c-1.854,-1.443 -3.936,-3.771 -6.243,-6.986c-4.122,-6.264 -8.428,-10.962 -12.921,-14.094c-4.492,-3.132 -10.2,-4.698 -17.123,-4.698c-9.974,-0 -18.01,3.894 -24.109,11.683c-6.1,7.789 -9.15,18.443 -9.15,31.96c0,6.347 0.784,12.179 2.35,17.495c1.566,5.316 3.832,9.85 6.8,13.6c2.967,3.75 6.552,6.594 10.756,8.531c4.204,1.937 8.819,2.905 13.847,2.905c6.759,0 12.549,-1.566 17.371,-4.698c4.822,-3.132 9.088,-7.913 12.797,-14.342c2.06,-3.791 4.286,-6.759 6.676,-8.902c2.39,-2.143 5.316,-3.214 8.778,-3.214c4.122,-0 7.542,1.566 10.262,4.698c2.72,3.132 4.08,6.47 4.08,10.015Z" style="fill:#b5f200;fill-rule:nonzero;"/><path d="M1303,1181.36l-66.022,0c0.082,7.666 1.628,14.424 4.636,20.277c3.009,5.852 7.006,10.261 11.993,13.229c4.987,2.967 10.489,4.451 16.506,4.451c4.038,-0 7.727,-0.474 11.065,-1.422c3.338,-0.948 6.573,-2.432 9.705,-4.451c3.133,-2.02 6.017,-4.183 8.655,-6.491c2.638,-2.308 6.058,-5.44 10.262,-9.396c1.731,-1.484 4.204,-2.226 7.418,-2.226c3.462,0 6.264,0.948 8.407,2.844c2.143,1.895 3.215,4.574 3.215,8.036c-0,3.05 -1.195,6.615 -3.586,10.695c-2.39,4.08 -5.996,7.995 -10.818,11.745c-4.822,3.751 -10.88,6.862 -18.174,9.335c-7.295,2.472 -15.682,3.709 -25.16,3.709c-21.678,-0 -38.534,-6.182 -50.568,-18.546c-12.034,-12.363 -18.051,-29.137 -18.051,-50.32c0,-9.973 1.484,-19.225 4.451,-27.756c2.967,-8.531 7.295,-15.846 12.982,-21.946c5.687,-6.099 12.693,-10.777 21.018,-14.033c8.325,-3.255 17.557,-4.883 27.695,-4.883c13.188,-0 24.501,2.782 33.938,8.345c9.438,5.564 16.506,12.755 21.204,21.575c4.698,8.819 7.047,17.804 7.047,26.953c0,8.489 -2.431,13.991 -7.294,16.505c-4.863,2.514 -11.705,3.771 -20.524,3.771Zm-66.022,-19.164l61.2,0c-0.824,-11.539 -3.936,-20.173 -9.335,-25.901c-5.398,-5.729 -12.507,-8.593 -21.327,-8.593c-8.407,-0 -15.31,2.905 -20.709,8.716c-5.399,5.811 -8.675,14.404 -9.829,25.778Z" style="fill:#b5f200;fill-rule:nonzero;"/></g><path d="M262.444,769.326c0,0 90.545,159.192 90.545,214.79c-0,55.598 -40.572,100.736 -90.545,100.736c-49.973,0 -90.544,-45.138 -90.544,-100.736c-0,-55.598 90.544,-214.79 90.544,-214.79Z" style="fill:#334866;"/><path d="M81.355,769.326c0,0 52.564,92.415 52.564,124.691c-0,32.277 -23.553,58.481 -52.564,58.481c-29.011,-0 -52.563,-26.204 -52.563,-58.481c-0,-32.276 52.563,-124.691 52.563,-124.691Z" style="fill:#334866;"/></g><path d="M2224.3,1218.72c-0,-12.682 -10.281,-22.962 -22.963,-22.962c-135.846,-0 -828.369,-0 -828.369,-0l-0,45.933l828.369,-0c12.682,-0 22.963,-10.281 22.963,-22.963c-0,-0.002 -0,-0.005 -0,-0.008Z" style="fill:#334866;"/></g></g></svg>